<?xml version="1.0" encoding="UTF-8"?>
<svg width="148px" height="124px" viewBox="0 0 148 124" version="1.1" xmlns="http://www.w3.org/2000/svg" xmlns:xlink="http://www.w3.org/1999/xlink">
    <!-- Generator: Sketch 47.1 (45422) - http://www.bohemiancoding.com/sketch -->
    <title>cc</title>
    <desc>Created with Sketch.</desc>
    <defs></defs>
    <g id="Page-1" stroke="none" stroke-width="1" fill="none" fill-rule="evenodd">
        <g id="cc" transform="translate(11.000000, 20.000000)">
            <path d="M124.654851,42.857661 C124.464979,22.812552 123.704227,14.0721099 118.954892,7.89652329 C118.100151,6.56741594 116.484657,5.80729521 115.154919,4.85793281 C110.499574,1.43707415 88.5544788,0.202587634 63.093904,0.202587634 C37.6333291,0.202587634 14.6434305,1.43707415 10.083337,4.85793281 C8.65803179,5.80729521 7.04247562,6.56741594 6.09305014,7.89652329 C1.43745264,14.0721099 0.772962039,22.812552 0.488027159,42.857661 C0.772962039,62.9040315 1.43745264,71.6438428 6.09305014,77.8187986 C7.04247562,79.2437884 8.65803179,79.9086575 10.083337,80.8586507 C14.6434305,84.3741302 37.6333291,85.5139959 63.093904,85.7038684 C88.5544788,85.5139959 110.499574,84.3741302 115.154919,80.8586507 C116.484657,79.9086575 118.100151,79.2437884 118.954892,77.8187986 C123.704227,71.6438428 124.464979,62.9040315 124.654851,42.857661 Z" id="path16" fill="#FFFFFF"></path>
            <path d="M124.654851,42.857661 C124.464979,22.812552 123.704227,14.0721099 118.954892,7.89652329 C118.100151,6.56741594 116.484657,5.80729521 115.154919,4.85793281 C110.499574,1.43707415 88.5544788,0.202587634 63.093904,0.202587634 C37.6333291,0.202587634 14.6434305,1.43707415 10.083337,4.85793281 C8.65803179,5.80729521 7.04247562,6.56741594 6.09305014,7.89652329 C1.43745264,14.0721099 0.772962039,22.812552 0.488027159,42.857661 C0.772962039,62.9040315 1.43745264,71.6438428 6.09305014,77.8187986 C7.04247562,79.2437884 8.65803179,79.9086575 10.083337,80.8586507 C14.6434305,84.3741302 37.6333291,85.5139959 63.093904,85.7038684 C88.5544788,85.5139959 110.499574,84.3741302 115.154919,80.8586507 C116.484657,79.9086575 118.100151,79.2437884 118.954892,77.8187986 C123.704227,71.6438428 124.464979,62.9040315 124.654851,42.857661 Z" id="path18" stroke="#000000" stroke-width="6.5"></path>
            <g id="Group" transform="translate(13.000000, 13.000000)" fill="#000000">
                <path d="M46.6760838,23.6597207 C45.4460451,8.77150794 37.4836069,0 23.2411079,0 C10.2286475,0 0,11.6687999 0,30.4197093 C0,49.2509693 9.32240461,61 24.7299785,61 C37.0302446,61 45.6405153,51.9872008 47,37.0181584 L32.3043193,37.0181584 C31.7216916,42.571451 29.3911808,46.8368587 24.4710261,46.8368587 C16.702456,46.8368587 15.2783084,39.1915764 15.2783084,31.0634721 C15.2783084,19.8768956 18.5152427,14.16374 23.8883984,14.16374 C28.6791672,14.16374 31.7216916,17.6238455 32.1748732,23.6597207 L46.6760838,23.6597207 Z" id="path20"></path>
                <path d="M99.6766801,23.6597207 C98.4466194,8.77150794 90.4840383,0 76.2411032,0 C63.2282288,0 53,11.6687999 53,30.4197093 C53,49.2509693 62.3220901,61 77.7300607,61 C90.0306679,61 98.641093,51.9872008 100,37.0181584 L85.3042966,37.0181584 C84.7220799,42.571451 82.3914068,46.8368587 77.4711639,46.8368587 C69.7024545,46.8368587 68.2779201,39.1915764 68.2779201,31.0634721 C68.2779201,19.8768956 71.515334,14.16374 76.8883452,14.16374 C81.6791397,14.16374 84.7220799,17.6238455 85.1748482,23.6597207 L99.6766801,23.6597207 Z" id="path22"></path>
            </g>
        </g>
    </g>
</svg>