<?xml version="1.0" encoding="UTF-8"?>
<svg width="590px" height="592px" viewBox="0 0 590 592" version="1.1" xmlns="http://www.w3.org/2000/svg" xmlns:xlink="http://www.w3.org/1999/xlink">
    <!-- Generator: Sketch 47.1 (45422) - http://www.bohemiancoding.com/sketch -->
    <title>Slice</title>
    <desc>Created with Sketch.</desc>
    <defs>
        <path d="M101.125451,187.959441 C120.037065,175.684274 151.880795,172.258014 196.656642,177.680662 C205.11988,178.705616 226.810898,41.7577892 224.687218,11.3087974 C222.563539,-19.1401944 267.45687,-39.8158284 273.24657,-10.0126589 C276.00022,4.16208187 273.188494,52.9316845 264.811393,136.296149 L264.811431,136.296153 C264.807096,136.339295 264.768608,136.370753 264.725466,136.366418 C264.682623,136.362113 264.651242,136.324103 264.655127,136.281219 C264.655127,136.281219 264.655127,136.281219 264.655127,136.281219 C276.933453,121.121328 277.064673,-13.0041035 309.449617,-45.7057806 C327.033823,-63.4619641 366.170177,-17.4344099 349.539091,25.2705454 C332.908005,67.9755007 314.233631,148.059159 313.676604,150.337902 C311.821615,157.926476 366.689385,-32.549138 389.53812,-16.7782497 C412.386854,-1.00736142 414.748289,31.0704943 410.601782,42.7799902 C408.693159,48.1698295 349.703175,177.528932 358.260391,176.483636 C370.360056,175.005618 422.018543,28.2226656 412.871679,56.653406 C411.255438,61.6770881 449.016806,42.2097897 451.468634,70.9875293 C453.625825,96.3070245 421.499687,168.892245 407.665204,190.650239 C389.663272,218.962533 345.328189,274.424636 342.320883,315.576683 C341.239944,330.368274 327.131768,345.367694 299.996355,360.574944 L208.439649,400.359998 L208.43965,400.360002 C202.361304,403.001287 195.292646,400.214998 192.651361,394.136651 C192.191736,393.078925 191.886989,391.960465 191.74652,390.815778 C179.404916,290.243124 156.185105,242.555263 122.087089,247.752195 C68.2986407,255.950177 60.953587,214.034232 101.125451,187.959441 Z" id="path-1"></path>
    </defs>
    <g id="Page-1" stroke="none" stroke-width="1" fill="none" fill-rule="evenodd">
        <g id="deaf-copy" transform="translate(102.000000, 246.000000)" stroke="#979797" fill-rule="nonzero" fill="#000000" stroke-linecap="round">
            <path d="M325.4,120.2 C316.3,112.4 304.8,108.1 293.1,108.1 L282.2,108.1 L243,108.1 L224.4,108.1 L224.4,59.6 C224.4,36.4 217.5,19.5 203.8,9.4 C182.2,-6.4 152.9,2.5 151.6,2.9 C146.6,4.5 143.2,9.1 143.2,14.3 L143.2,72.8 C143.2,90.6 134.7,105.7 117.8,117.8 C105,127 91.9,131.2 90.2,131.7 L89,132 C84.5,126.9 77.9,123.7 70.5,123.7 L24.9,123.7 C11.3,123.7 0.2,134.8 0.2,148.4 L0.2,298 C0.2,311.6 11.3,322.7 24.9,322.7 L70.7,322.7 C76.7,322.7 82.3,320.5 86.5,316.9 C95.7,325.9 108.2,331.4 121.7,331.4 L167.2,331.4 L171.9,331.4 L265,331.4 C279.4,331.4 292.1,327.9 301.8,321.4 C314.2,313 321.9,299.7 324.1,282.7 L342.6,167.7 C345.5,149.9 338.9,131.7 325.4,120.2 Z M71.4,298 C71.4,298.4 71.1,298.7 70.7,298.7 L24.9,298.7 C24.5,298.7 24.2,298.4 24.2,298 L24.2,148.4 C24.2,148 24.5,147.7 24.9,147.7 L70.7,147.7 C71.1,147.7 71.4,148 71.4,148.4 L71.4,298 L71.4,298 Z M318.9,164 L300.4,279.2 C300.4,279.3 300.4,279.5 300.3,279.7 C299.5,286.6 296.9,307.5 265,307.5 L171.9,307.5 L167.2,307.5 L121.7,307.5 C108.9,307.5 97.7,297.9 95.7,285.2 C95.6,284.7 95.5,284.2 95.4,283.8 L95.4,155.2 L96.1,155 C96.3,155 96.4,154.9 96.6,154.9 C97.3,154.7 114.3,149.9 131.2,137.8 C154.7,121.1 167.2,98.6 167.2,72.8 L167.2,24.2 C173.8,23.5 182.9,23.8 189.6,28.7 C196.8,34 200.4,44.4 200.4,59.5 L200.4,120 C200.4,126.6 205.8,132 212.4,132 L243,132 L282.2,132 L293.1,132 C299.1,132 305,134.3 309.8,138.3 C317,144.5 320.4,154.3 318.9,164 Z" id="Shape"></path>
        </g>
        <g id="Rectangle" transform="translate(263.572136, 175.869924) scale(-1, 1) rotate(74.000000) translate(-263.572136, -175.869924) ">
            <use fill="#FFFFFF" fill-rule="evenodd" xlink:href="#path-1"></use>
            <path stroke="#161616" stroke-width="17" d="M386.420412,-8.52886479 C386.727536,-8.79512291 387.012476,-9.01340113 387.272892,-9.18276865 C387.426851,-9.28289976 387.518387,-9.33065037 387.536541,-9.33762359 C387.404942,-9.28707423 387.198795,-9.23825552 386.926032,-9.21679533 C386.127753,-9.15398922 385.284372,-9.38614048 384.709664,-9.78282182 C385.292718,-9.38037994 385.862987,-8.96222983 386.420412,-8.52886479 Z M418.079577,65.5814023 C420.008424,60.5460549 420.814376,58.4756222 421.320381,57.25782 C421.391511,57.0866332 421.4464,56.9581393 421.48067,56.8812064 C421.46028,56.9269812 421.42683,56.9969914 421.325634,57.1811845 C421.099728,57.5923674 420.867703,57.959785 420.441162,58.4694372 C419.805694,59.2675424 419.805694,59.2675424 417.36378,60.7797085 C415.177769,61.5842267 415.177769,61.5842267 411.622409,61.1770484 C409.859234,60.5265867 409.859234,60.5265867 408.469197,59.502053 C407.349045,58.4214828 407.349045,58.4214828 406.681125,57.4140471 C405.450545,54.3895418 405.450545,54.3895418 405.454335,53.2655773 C405.461244,52.4788634 405.461244,52.4788634 405.504927,52.0816076 C405.539644,51.7811841 405.578494,51.5665101 405.622516,51.3648082 C405.642622,51.2726888 405.641944,51.2753028 405.629118,51.3209642 C405.592545,51.4511599 405.537975,51.6365164 405.466702,51.8713323 C405.307997,52.3941955 405.079616,53.119295 404.780134,54.0501583 C403.213161,58.9207033 405.7868,63.9999595 410.696587,65.5503168 C412.54824,66.1350111 414.091578,66.1346976 416.075735,65.8928475 C416.688928,65.8181051 417.324249,65.7185599 418.079577,65.5814023 Z M296.211544,352.95177 C296.088292,353.021149 295.964728,353.09055 295.840852,353.159973 L296.608774,352.779157 L296.21155,352.951767 Z M386.420412,-8.52886479 C394.068902,-2.58261405 399.299175,6.22813591 401.957983,16.6290668 C404.278407,25.7062798 404.26929,35.1985187 402.58932,39.9426578 C402.455441,40.3207252 384.250618,81.634081 376.215634,100.420025 C375.37494,102.385582 374.550084,104.320792 373.741055,106.225916 C365.541171,125.535247 359.148233,141.319306 354.908583,152.958626 C352.415306,159.803542 350.688798,165.154124 349.767204,169.027787 C349.171306,171.532479 348.866333,173.549675 348.918025,175.384433 C348.969685,177.218036 349.337281,178.921646 350.41103,180.659207 C352.299555,183.715254 355.734611,185.355351 359.291036,184.920921 C363.758678,184.375182 366.550488,181.713805 369.854592,176.998606 C371.922693,174.047274 374.226807,170.054769 376.815314,165.017654 C381.289261,156.311556 386.61397,144.477848 392.701255,129.919462 C394.30007,126.095725 395.943503,122.102623 397.631469,117.944424 C403.694341,103.008919 408.380354,90.9480422 416.732919,69.1008924 C417.234581,67.7887361 417.681047,66.6217832 418.079577,65.5814023 C418.548441,65.4962627 419.063548,65.3966302 419.648307,65.2794408 C419.851621,65.2386956 422.565889,64.682708 423.416824,64.5158394 C427.073017,63.7988595 429.869543,63.4107964 432.465775,63.3318141 C439.739904,63.1105214 442.419738,64.9064329 442.999318,71.7091048 C443.830503,81.4649472 437.964544,102.936817 427.65807,129.032029 C418.748274,151.59096 407.427085,175.183009 400.492363,186.089499 C397.066835,191.476951 377.099512,220.476657 371.556916,228.945433 C362.761784,242.383903 355.65604,254.296395 349.848881,265.697939 C340.44909,284.153117 334.902951,300.459466 333.843489,314.957172 C333.030604,326.080706 320.848422,339.083533 296.211544,352.95177 L205.052067,392.564211 C203.279214,393.334589 201.217523,392.521922 200.447147,390.74907 C200.31309,390.440566 200.224205,390.114348 200.183235,389.780481 C193.907906,338.642352 184.820443,300.755451 172.717676,275.899302 C159.648821,249.059041 142.160548,236.09461 120.80638,239.349232 C99.4841771,242.598983 87.0595305,237.410396 84.5599273,228.429078 C81.9754744,219.142888 89.383782,205.714311 105.753245,195.089205 C122.611793,184.146643 152.656007,180.914004 195.634704,186.119006 C200.375171,186.693107 203.264768,184.394993 205.505854,180.963997 C206.520026,179.411349 207.421913,177.483518 208.33038,175.076797 C209.842119,171.071879 211.452832,165.474871 213.166554,158.400556 C216.314527,145.405593 219.779763,127.500528 223.030072,107.672468 C229.840412,66.1269345 234.227873,25.9334819 233.166619,10.7173974 C232.45257,0.479466983 239.549596,-9.7291316 249.48357,-14.1934017 C257.996701,-18.0191531 263.406553,-16.0925784 264.902558,-8.39171298 C267.418105,4.55736298 264.606935,53.3173124 256.353986,135.446284 C256.8146,130.821616 260.945708,127.443791 265.575331,127.909011 C270.171046,128.370824 273.537205,132.448132 273.120457,137.048152 L264.655127,136.281219 L271.260423,141.630992 C275.754681,136.081989 278.171989,125.316299 281.331454,102.82196 C281.606848,100.861244 287.222983,57.3517488 289.306798,43.683913 C296.018956,-0.341433343 304.25758,-28.3832223 315.489202,-39.7246924 C319.009432,-43.2793511 327.436384,-39.7185907 335.286806,-28.1247731 C345.060766,-13.6901971 348.12449,5.48008397 341.618531,22.1859499 C339.930306,26.52094 338.189873,31.3107492 336.400093,36.5295749 C332.82242,46.9617254 329.081321,59.0058343 325.225122,72.3601573 C320.506312,88.7017748 315.850303,106.170757 311.421355,123.766109 C309.862319,129.959858 308.440417,135.737977 307.149073,141.086997 C306.413912,144.132188 305.342899,148.633788 305.419713,148.319546 C305.382355,148.473625 305.382355,148.473625 305.336491,148.678546 C305.280766,148.912302 305.280766,148.912302 305.162158,149.821175 C305.124745,150.25821 305.124745,150.25821 305.159077,151.248778 C305.225625,151.97043 305.225625,151.97043 305.587931,153.30678 C305.90793,154.170365 305.90793,154.170365 306.607831,155.345817 C307.627784,156.686444 307.627784,156.686444 309.526467,158.001657 C311.870479,158.995467 311.870479,158.995467 314.280211,159.034155 C316.329724,158.684878 316.329724,158.684878 317.636584,158.056684 C319.391941,156.880938 319.391941,156.880938 320.062206,156.118954 C320.858334,155.072297 320.858334,155.072297 321.106501,154.609784 C321.559735,153.663764 321.559735,153.663764 321.637688,153.431871 C321.751569,153.123225 321.864677,152.775066 322.062958,152.143767 C322.310541,151.355495 322.428752,150.971584 323.509751,147.45216 C325.644675,140.501462 327.260122,135.294911 329.323398,128.768932 C335.846427,108.137104 342.530895,88.1233854 349.346343,69.3230205 C354.528265,55.0287258 359.531027,42.1649756 364.284181,31.0527543 C370.73871,15.9629497 376.587021,4.45960676 381.553752,-2.70937613 C383.45148,-5.44855775 385.131353,-7.41132832 386.420412,-8.52886479 Z M321.972045,152.191796 C321.967307,152.211799 321.962954,152.230185 321.959,152.2469 C321.963746,152.228199 321.967927,152.210958 321.972045,152.191796 Z M361.769378,-2.96663375 C362.725276,7.48408631 361.411812,18.2068647 357.459651,28.3551409 C355.861049,32.4599978 354.198908,37.0343431 352.480732,42.0443793 C349.00336,52.1840605 345.342126,63.9710487 341.557823,77.076393 C336.899467,93.2086534 332.291845,110.496091 327.907118,127.915761 C326.362176,134.053519 324.953302,139.778697 323.674329,145.076475 C323.053571,147.647784 322.171394,151.350302 321.972045,152.191796 C321.993306,152.092866 322.012878,151.942731 322.099788,151.276052 C322.136605,150.847609 322.136605,150.847609 322.102487,149.862829 C322.036198,149.143546 322.036198,149.143546 321.674352,147.808865 C321.354622,146.945984 321.354622,146.945984 320.655039,145.771062 C319.63543,144.430877 319.63543,144.430877 317.737141,143.115932 C315.393548,142.122303 315.393548,142.122303 312.984287,142.083621 C310.935268,142.432818 310.935268,142.432818 309.628953,143.060757 C307.874762,144.235734 307.874762,144.235734 307.205864,144.996253 C306.41277,146.038941 306.41277,146.038941 306.168441,146.494713 C305.734561,147.399945 305.734561,147.399945 305.688698,147.547169 C305.66627,147.607955 305.742086,147.374585 305.844128,147.049695 C306.074953,146.31478 306.199042,145.91178 307.259044,142.460717 C309.406464,135.469333 311.034274,130.222937 313.114234,123.644187 C319.702608,102.805681 326.457758,82.5803342 333.364116,63.5291948 C338.647324,48.9555033 343.762091,35.8037524 348.65402,24.3670925 C353.2808,13.5503146 357.649676,4.39706129 361.769378,-2.96663375 Z"></path>
        </g>
        <path d="M529.383806,402.116885 C530.535678,405.259284 532.088201,406.898797 533.640724,406.898797 C535.193247,406.898797 536.695689,405.259284 537.897643,402.116885 C540.251468,395.695461 540.251468,385.311882 537.897643,378.890458 L503.792216,285.848124 C501.43839,279.4267 497.632204,279.4267 495.278379,285.848124 C492.924554,292.269548 492.924554,302.653127 495.278379,309.074551 L529.383806,402.116885 Z" id="Shape-Copy" fill="#C9C9C9" fill-rule="nonzero" transform="translate(516.588011, 343.965426) rotate(-27.000000) translate(-516.588011, -343.965426) "></path>
        <path d="M539.420074,341.143115 C540.571946,344.285514 542.124469,345.925026 543.676992,345.925026 C545.229515,345.925026 546.731957,344.285514 547.93391,341.143115 C550.287736,334.721691 550.287736,324.338112 547.93391,317.916688 L513.828483,224.874353 C511.474658,218.452929 507.668472,218.452929 505.314647,224.874353 C502.960822,231.295777 502.960822,241.679357 505.314647,248.100781 L539.420074,341.143115 Z" id="Shape-Copy" fill="#C9C9C9" fill-rule="nonzero" transform="translate(526.624279, 282.991656) rotate(-27.000000) translate(-526.624279, -282.991656) "></path>
    </g>
</svg>