<?xml version="1.0" encoding="UTF-8"?>
<svg width="654px" height="656px" viewBox="0 0 654 656" version="1.1" xmlns="http://www.w3.org/2000/svg" xmlns:xlink="http://www.w3.org/1999/xlink">
    <!-- Generator: Sketch 47.1 (45422) - http://www.bohemiancoding.com/sketch -->
    <title>Slice</title>
    <desc>Created with Sketch.</desc>
    <defs>
        <path d="M133.125451,209.959441 C152.037065,197.684274 183.880795,194.258014 228.656642,199.680662 C237.11988,200.705616 258.810898,63.7577892 256.687218,33.3087974 C254.563539,2.85980557 299.45687,-17.8158284 305.24657,11.9873411 C308.00022,26.1620819 305.188494,74.9316845 296.811393,158.296149 L296.811431,158.296153 C296.807096,158.339295 296.768608,158.370753 296.725466,158.366418 C296.682623,158.362113 296.651242,158.324103 296.655127,158.281219 C296.655127,158.281219 296.655127,158.281219 296.655127,158.281219 C308.933453,143.121328 309.064673,8.99589652 341.449617,-23.7057806 C359.033823,-41.4619641 398.170177,4.56559011 381.539091,47.2705454 C364.908005,89.9755007 346.233631,170.059159 345.676604,172.337902 C343.821615,179.926476 398.689385,-10.549138 421.53812,5.22175029 C444.386854,20.9926386 446.748289,53.0704943 442.601782,64.7799902 C440.693159,70.1698295 381.703175,199.528932 390.260391,198.483636 C402.360056,197.005618 454.018543,50.2226656 444.871679,78.653406 C443.255438,83.6770881 481.016806,64.2097897 483.468634,92.9875293 C485.625825,118.307024 453.499687,190.892245 439.665204,212.650239 C421.663272,240.962533 377.328189,296.424636 374.320883,337.576683 C373.239944,352.368274 359.131768,367.367694 331.996355,382.574944 L240.439649,422.359998 L240.43965,422.360002 C234.361304,425.001287 227.292646,422.214998 224.651361,416.136651 C224.191736,415.078925 223.886989,413.960465 223.74652,412.815778 C211.404916,312.243124 188.185105,264.555263 154.087089,269.752195 C100.298641,277.950177 92.953587,236.034232 133.125451,209.959441 Z" id="path-1"></path>
    </defs>
    <g id="Page-1" stroke="none" stroke-width="1" fill="none" fill-rule="evenodd">
        <g id="deaf-copy" transform="translate(134.000000, 268.000000)" stroke="#979797" fill-rule="nonzero" fill="#000000" stroke-linecap="round">
            <path d="M325.4,120.2 C316.3,112.4 304.8,108.1 293.1,108.1 L282.2,108.1 L243,108.1 L224.4,108.1 L224.4,59.6 C224.4,36.4 217.5,19.5 203.8,9.4 C182.2,-6.4 152.9,2.5 151.6,2.9 C146.6,4.5 143.2,9.1 143.2,14.3 L143.2,72.8 C143.2,90.6 134.7,105.7 117.8,117.8 C105,127 91.9,131.2 90.2,131.7 L89,132 C84.5,126.9 77.9,123.7 70.5,123.7 L24.9,123.7 C11.3,123.7 0.2,134.8 0.2,148.4 L0.2,298 C0.2,311.6 11.3,322.7 24.9,322.7 L70.7,322.7 C76.7,322.7 82.3,320.5 86.5,316.9 C95.7,325.9 108.2,331.4 121.7,331.4 L167.2,331.4 L171.9,331.4 L265,331.4 C279.4,331.4 292.1,327.9 301.8,321.4 C314.2,313 321.9,299.7 324.1,282.7 L342.6,167.7 C345.5,149.9 338.9,131.7 325.4,120.2 Z M71.4,298 C71.4,298.4 71.1,298.7 70.7,298.7 L24.9,298.7 C24.5,298.7 24.2,298.4 24.2,298 L24.2,148.4 C24.2,148 24.5,147.7 24.9,147.7 L70.7,147.7 C71.1,147.7 71.4,148 71.4,148.4 L71.4,298 L71.4,298 Z M318.9,164 L300.4,279.2 C300.4,279.3 300.4,279.5 300.3,279.7 C299.5,286.6 296.9,307.5 265,307.5 L171.9,307.5 L167.2,307.5 L121.7,307.5 C108.9,307.5 97.7,297.9 95.7,285.2 C95.6,284.7 95.5,284.2 95.4,283.8 L95.4,155.2 L96.1,155 C96.3,155 96.4,154.9 96.6,154.9 C97.3,154.7 114.3,149.9 131.2,137.8 C154.7,121.1 167.2,98.6 167.2,72.8 L167.2,24.2 C173.8,23.5 182.9,23.8 189.6,28.7 C196.8,34 200.4,44.4 200.4,59.5 L200.4,120 C200.4,126.6 205.8,132 212.4,132 L243,132 L282.2,132 L293.1,132 C299.1,132 305,134.3 309.8,138.3 C317,144.5 320.4,154.3 318.9,164 Z" id="Shape"></path>
        </g>
        <g id="Rectangle" transform="translate(295.572136, 197.869924) scale(-1, 1) rotate(74.000000) translate(-295.572136, -197.869924) ">
            <use fill="#FFFFFF" fill-rule="evenodd" xlink:href="#path-1"></use>
            <path stroke="#161616" stroke-width="17" d="M418.420412,13.4711352 C418.727536,13.2048771 419.012476,12.9865989 419.272892,12.8172314 C419.426851,12.7171002 419.518387,12.6693496 419.536541,12.6623764 C419.404942,12.7129258 419.198795,12.7617445 418.926032,12.7832047 C418.127753,12.8460108 417.284372,12.6138595 416.709664,12.2171782 C417.292718,12.6196201 417.862987,13.0377702 418.420412,13.4711352 Z M450.079577,87.5814023 C452.008424,82.5460549 452.814376,80.4756222 453.320381,79.25782 C453.391511,79.0866332 453.4464,78.9581393 453.48067,78.8812064 C453.46028,78.9269812 453.42683,78.9969914 453.325634,79.1811845 C453.099728,79.5923674 452.867703,79.959785 452.441162,80.4694372 C451.805694,81.2675424 451.805694,81.2675424 449.36378,82.7797085 C447.177769,83.5842267 447.177769,83.5842267 443.622409,83.1770484 C441.859234,82.5265867 441.859234,82.5265867 440.469197,81.502053 C439.349045,80.4214828 439.349045,80.4214828 438.681125,79.4140471 C437.450545,76.3895418 437.450545,76.3895418 437.454335,75.2655773 C437.461244,74.4788634 437.461244,74.4788634 437.504927,74.0816076 C437.539644,73.7811841 437.578494,73.5665101 437.622516,73.3648082 C437.642622,73.2726888 437.641944,73.2753028 437.629118,73.3209642 C437.592545,73.4511599 437.537975,73.6365164 437.466702,73.8713323 C437.307997,74.3941955 437.079616,75.119295 436.780134,76.0501583 C435.213161,80.9207033 437.7868,85.9999595 442.696587,87.5503168 C444.54824,88.1350111 446.091578,88.1346976 448.075735,87.8928475 C448.688928,87.8181051 449.324249,87.7185599 450.079577,87.5814023 Z M328.211544,374.95177 C328.088292,375.021149 327.964728,375.09055 327.840852,375.159973 L328.608774,374.779157 L328.21155,374.951767 Z M418.420412,13.4711352 C426.068902,19.4173859 431.299175,28.2281359 433.957983,38.6290668 C436.278407,47.7062798 436.26929,57.1985187 434.58932,61.9426578 C434.455441,62.3207252 416.250618,103.634081 408.215634,122.420025 C407.37494,124.385582 406.550084,126.320792 405.741055,128.225916 C397.541171,147.535247 391.148233,163.319306 386.908583,174.958626 C384.415306,181.803542 382.688798,187.154124 381.767204,191.027787 C381.171306,193.532479 380.866333,195.549675 380.918025,197.384433 C380.969685,199.218036 381.337281,200.921646 382.41103,202.659207 C384.299555,205.715254 387.734611,207.355351 391.291036,206.920921 C395.758678,206.375182 398.550488,203.713805 401.854592,198.998606 C403.922693,196.047274 406.226807,192.054769 408.815314,187.017654 C413.289261,178.311556 418.61397,166.477848 424.701255,151.919462 C426.30007,148.095725 427.943503,144.102623 429.631469,139.944424 C435.694341,125.008919 440.380354,112.948042 448.732919,91.1008924 C449.234581,89.7887361 449.681047,88.6217832 450.079577,87.5814023 C450.548441,87.4962627 451.063548,87.3966302 451.648307,87.2794408 C451.851621,87.2386956 454.565889,86.682708 455.416824,86.5158394 C459.073017,85.7988595 461.869543,85.4107964 464.465775,85.3318141 C471.739904,85.1105214 474.419738,86.9064329 474.999318,93.7091048 C475.830503,103.464947 469.964544,124.936817 459.65807,151.032029 C450.748274,173.59096 439.427085,197.183009 432.492363,208.089499 C429.066835,213.476951 409.099512,242.476657 403.556916,250.945433 C394.761784,264.383903 387.65604,276.296395 381.848881,287.697939 C372.44909,306.153117 366.902951,322.459466 365.843489,336.957172 C365.030604,348.080706 352.848422,361.083533 328.211544,374.95177 L237.052067,414.564211 C235.279214,415.334589 233.217523,414.521922 232.447147,412.74907 C232.31309,412.440566 232.224205,412.114348 232.183235,411.780481 C225.907906,360.642352 216.820443,322.755451 204.717676,297.899302 C191.648821,271.059041 174.160548,258.09461 152.80638,261.349232 C131.484177,264.598983 119.059531,259.410396 116.559927,250.429078 C113.975474,241.142888 121.383782,227.714311 137.753245,217.089205 C154.611793,206.146643 184.656007,202.914004 227.634704,208.119006 C232.375171,208.693107 235.264768,206.394993 237.505854,202.963997 C238.520026,201.411349 239.421913,199.483518 240.33038,197.076797 C241.842119,193.071879 243.452832,187.474871 245.166554,180.400556 C248.314527,167.405593 251.779763,149.500528 255.030072,129.672468 C261.840412,88.1269345 266.227873,47.9334819 265.166619,32.7173974 C264.45257,22.479467 271.549596,12.2708684 281.48357,7.80659832 C289.996701,3.98084689 295.406553,5.90742164 296.902558,13.608287 C299.418105,26.557363 296.606935,75.3173124 288.353986,157.446284 C288.8146,152.821616 292.945708,149.443791 297.575331,149.909011 C302.171046,150.370824 305.537205,154.448132 305.120457,159.048152 L296.655127,158.281219 L303.260423,163.630992 C307.754681,158.081989 310.171989,147.316299 313.331454,124.82196 C313.606848,122.861244 319.222983,79.3517488 321.306798,65.683913 C328.018956,21.6585667 336.25758,-6.38322232 347.489202,-17.7246924 C351.009432,-21.2793511 359.436384,-17.7185907 367.286806,-6.12477311 C377.060766,8.30980288 380.12449,27.480084 373.618531,44.1859499 C371.930306,48.52094 370.189873,53.3107492 368.400093,58.5295749 C364.82242,68.9617254 361.081321,81.0058343 357.225122,94.3601573 C352.506312,110.701775 347.850303,128.170757 343.421355,145.766109 C341.862319,151.959858 340.440417,157.737977 339.149073,163.086997 C338.413912,166.132188 337.342899,170.633788 337.419713,170.319546 C337.382355,170.473625 337.382355,170.473625 337.336491,170.678546 C337.280766,170.912302 337.280766,170.912302 337.162158,171.821175 C337.124745,172.25821 337.124745,172.25821 337.159077,173.248778 C337.225625,173.97043 337.225625,173.97043 337.587931,175.30678 C337.90793,176.170365 337.90793,176.170365 338.607831,177.345817 C339.627784,178.686444 339.627784,178.686444 341.526467,180.001657 C343.870479,180.995467 343.870479,180.995467 346.280211,181.034155 C348.329724,180.684878 348.329724,180.684878 349.636584,180.056684 C351.391941,178.880938 351.391941,178.880938 352.062206,178.118954 C352.858334,177.072297 352.858334,177.072297 353.106501,176.609784 C353.559735,175.663764 353.559735,175.663764 353.637688,175.431871 C353.751569,175.123225 353.864677,174.775066 354.062958,174.143767 C354.310541,173.355495 354.428752,172.971584 355.509751,169.45216 C357.644675,162.501462 359.260122,157.294911 361.323398,150.768932 C367.846427,130.137104 374.530895,110.123385 381.346343,91.3230205 C386.528265,77.0287258 391.531027,64.1649756 396.284181,53.0527543 C402.73871,37.9629497 408.587021,26.4596068 413.553752,19.2906239 C415.45148,16.5514423 417.131353,14.5886717 418.420412,13.4711352 Z M353.972045,174.191796 C353.967307,174.211799 353.962954,174.230185 353.959,174.2469 C353.963746,174.228199 353.967927,174.210958 353.972045,174.191796 Z M393.769378,19.0333663 C394.725276,29.4840863 393.411812,40.2068647 389.459651,50.3551409 C387.861049,54.4599978 386.198908,59.0343431 384.480732,64.0443793 C381.00336,74.1840605 377.342126,85.9710487 373.557823,99.076393 C368.899467,115.208653 364.291845,132.496091 359.907118,149.915761 C358.362176,156.053519 356.953302,161.778697 355.674329,167.076475 C355.053571,169.647784 354.171394,173.350302 353.972045,174.191796 C353.993306,174.092866 354.012878,173.942731 354.099788,173.276052 C354.136605,172.847609 354.136605,172.847609 354.102487,171.862829 C354.036198,171.143546 354.036198,171.143546 353.674352,169.808865 C353.354622,168.945984 353.354622,168.945984 352.655039,167.771062 C351.63543,166.430877 351.63543,166.430877 349.737141,165.115932 C347.393548,164.122303 347.393548,164.122303 344.984287,164.083621 C342.935268,164.432818 342.935268,164.432818 341.628953,165.060757 C339.874762,166.235734 339.874762,166.235734 339.205864,166.996253 C338.41277,168.038941 338.41277,168.038941 338.168441,168.494713 C337.734561,169.399945 337.734561,169.399945 337.688698,169.547169 C337.66627,169.607955 337.742086,169.374585 337.844128,169.049695 C338.074953,168.31478 338.199042,167.91178 339.259044,164.460717 C341.406464,157.469333 343.034274,152.222937 345.114234,145.644187 C351.702608,124.805681 358.457758,104.580334 365.364116,85.5291948 C370.647324,70.9555033 375.762091,57.8037524 380.65402,46.3670925 C385.2808,35.5503146 389.649676,26.3970613 393.769378,19.0333663 Z"></path>
        </g>
        <path d="M561.383806,424.116885 C562.535678,427.259284 564.088201,428.898797 565.640724,428.898797 C567.193247,428.898797 568.695689,427.259284 569.897643,424.116885 C572.251468,417.695461 572.251468,407.311882 569.897643,400.890458 L535.792216,307.848124 C533.43839,301.4267 529.632204,301.4267 527.278379,307.848124 C524.924554,314.269548 524.924554,324.653127 527.278379,331.074551 L561.383806,424.116885 Z" id="Shape-Copy" fill="#C9C9C9" fill-rule="nonzero" transform="translate(548.588011, 365.965426) rotate(-27.000000) translate(-548.588011, -365.965426) "></path>
        <path d="M571.420074,363.143115 C572.571946,366.285514 574.124469,367.925026 575.676992,367.925026 C577.229515,367.925026 578.731957,366.285514 579.93391,363.143115 C582.287736,356.721691 582.287736,346.338112 579.93391,339.916688 L545.828483,246.874353 C543.474658,240.452929 539.668472,240.452929 537.314647,246.874353 C534.960822,253.295777 534.960822,263.679357 537.314647,270.100781 L571.420074,363.143115 Z" id="Shape-Copy" fill="#C9C9C9" fill-rule="nonzero" transform="translate(558.624279, 304.991656) rotate(-27.000000) translate(-558.624279, -304.991656) "></path>
    </g>
</svg>