<?xml version="1.0"?>
<svg xmlns="http://www.w3.org/2000/svg" viewBox="0 0 50 50" enable-background="new 0 0 50 50">
    <path style="text-indent:0;text-align:start;line-height:normal;text-transform:none;block-progression:tb;-inkscape-font-specification:Bitstream Vera Sans" d="M 14.1875 5.21875 C 13.422335 5.21875 12.670527 5.5169733 12.09375 6.09375 C 11.908936 6.2785639 11.873187 6.3333357 11.75 6.5 C 11.626813 6.6666643 11.485771 6.8805223 11.3125 7.125 C 10.965959 7.6139553 10.544977 8.2357239 10.125 8.84375 C 9.5567 9.6665127 9.2967184 10.034189 9 10.46875 L 9 10.09375 C 9 8.6270833 7.9777188 7.3267938 6.5 7.03125 A 1.0001 1.0001 0 0 0 6.46875 7 C 4.6378133 6.6948439 3 8.1888889 3 10 L 3 20.1875 C 3 21.331944 2.4030158 22.376617 1.34375 22.90625 L 0.5625 23.3125 A 1.0001 1.0001 0 0 0 0 24.1875 L 0 35.90625 A 1.0001 1.0001 0 0 0 1.3125 36.84375 L 6.03125 35.25 A 1.0001 1.0001 0 0 0 6.0625 35.25 C 6.6059715 35.046198 7.3940285 35.046198 7.9375 35.25 A 1.0001 1.0001 0 0 0 7.96875 35.25 L 12.34375 36.84375 C 13.421076 37.247747 14.655337 37.10048 15.625 36.4375 C 15.63648 36.4297 15.64485 36.41425 15.65625 36.40625 L 15.6875 36.40625 L 20.0625 33.6875 C 20.08275 33.67737 20.10481 33.66694 20.125 33.65625 C 20.644465 33.381161 21.10327 32.92364 21.3125 32.28125 C 21.32 32.25814 21.33697 32.24232 21.34375 32.21875 L 21.375 32.15625 L 23.8125 26.28125 A 1.0001 1.0001 0 0 0 23.53125 25.125 C 23.53125 25.125 23.28172 24.975714 23.1875 24.90625 C 24.186473 23.742657 24.194143 22.006643 23.09375 20.90625 C 22.872317 20.684817 21.226502 18.918336 20.34375 17.9375 A 1.0001 1.0001 0 0 0 20.3125 17.90625 C 19.735723 17.329473 18.954167 17 18.1875 17 L 18.53125 16.4375 C 18.705328 16.337149 19.233869 16.011234 20 15.5625 C 20.43951 15.305072 20.90929 15.03663 21.28125 14.8125 C 21.65321 14.58837 21.871083 14.4795 22.09375 14.3125 A 1.0001 1.0001 0 0 0 22.21875 14.21875 C 23.372303 13.065197 23.372303 11.153553 22.21875 10 C 21.656705 9.4379547 20.856099 9.1181326 20.09375 9.15625 C 19.354396 9.1932177 18.67053 9.4993886 18 9.9375 C 17.98502 9.94649 17.95327 9.959235 17.9375 9.96875 C 17.265218 10.374485 16.405567 10.941588 15.4375 11.5625 C 15.604355 11.316682 15.765771 11.044828 15.90625 10.84375 C 16.022604 10.677205 16.141979 10.541079 16.21875 10.4375 C 16.29552 10.333921 16.38303 10.24197 16.3125 10.3125 A 1.0001 1.0001 0 0 0 16.40625 10.1875 C 16.833225 9.577536 17.136856 8.8932124 17.15625 8.15625 C 17.17564 7.4192876 16.874545 6.6557953 16.3125 6.09375 C 15.735723 5.5169733 14.952665 5.21875 14.1875 5.21875 z M 14.1875 7.1875 C 14.422335 7.1875 14.683027 7.276777 14.90625 7.5 C 15.144205 7.7379547 15.161856 7.8807124 15.15625 8.09375 C 15.15065 8.3067876 15.054275 8.641214 14.78125 9.03125 C 14.72503 9.099018 14.652948 9.1701294 14.59375 9.25 C 14.49826 9.3788424 14.403959 9.5118578 14.28125 9.6875 C 14.035832 10.038784 13.751883 10.484696 13.46875 10.90625 C 12.902484 11.749357 12.375 12.5625 12.375 12.5625 A 1.0001 1.0001 0 0 0 12.25 12.8125 L 10.9375 16.90625 A 1.0001 1.0001 0 0 0 12.75 17.75 L 15.125 14.125 C 15.392966 13.95238 18.102841 12.194545 19 11.65625 A 1.0001 1.0001 0 0 0 19.0625 11.625 C 19.571828 11.285448 19.949849 11.168133 20.1875 11.15625 C 20.425151 11.14437 20.543295 11.1683 20.78125 11.40625 C 21.219579 11.844579 21.20364 12.310042 20.78125 12.75 C 20.77345 12.7581 20.78935 12.77313 20.78125 12.78125 C 20.69859 12.83382 20.538222 12.951328 20.25 13.125 C 19.89071 13.341495 19.43549 13.588678 19 13.84375 C 18.129021 14.353895 17.3125 14.84375 17.3125 14.84375 A 1.0001 1.0001 0 0 0 16.9375 15.1875 L 15.53125 17.46875 A 1.0001 1.0001 0 0 0 16.40625 19 L 18.1875 19 C 18.40006 19 18.63839 19.100102 18.84375 19.28125 C 19.760998 20.300414 21.308933 21.933933 21.6875 22.3125 C 22.133947 22.758947 22.133947 23.241053 21.6875 23.6875 C 21.241053 24.133947 20.758947 24.133947 20.3125 23.6875 L 17.90625 21.28125 A 1.0001 1.0001 0 0 0 17.1875 21 L 14 21 A 1.0001 1.0001 0 0 0 13.125 21.5 L 11.125 25 A 1.0001 1.0001 0 0 0 11.125 26 L 13.125 29.5 A 1.0001 1.0001 0 0 0 14 30 L 16.90625 30 A 1.0001 1.0001 0 0 0 17.8125 29.40625 C 18.085174 28.806367 18.472905 27.900018 18.96875 27.15625 C 19.464595 26.412482 19.965022 26 20.40625 26 C 21.021837 26 21.247749 26.239226 21.59375 26.4375 L 19.46875 31.5 A 1.0001 1.0001 0 0 0 19.4375 31.65625 C 19.4231 31.71385 19.37737 31.795693 19.15625 31.90625 A 1.0001 1.0001 0 0 0 19.0625 31.9375 L 14.5625 34.75 A 1.0001 1.0001 0 0 0 14.53125 34.78125 C 14.109825 35.082268 13.563217 35.156519 13.0625 34.96875 A 1.0001 1.0001 0 0 0 13.03125 34.96875 L 8.65625 33.375 C 7.6093461 32.982411 6.4242771 32.989564 5.375 33.375 C 5.36535 33.3785 5.353375 33.3714 5.34375 33.375 L 2 34.5 L 2 24.8125 L 2.25 24.6875 C 3.9907342 23.817133 5 22.043056 5 20.1875 L 5 10 C 5 9.4111111 5.5559367 8.9051561 6.125 9 C 6.6245122 9.1217363 7 9.5752801 7 10.09375 L 7 16.09375 A 1.0001 1.0001 0 0 0 8.96875 16.375 L 10.1875 12.28125 C 10.24597 12.19539 10.947357 11.130785 11.75 9.96875 C 12.167523 9.3642761 12.599666 8.7579197 12.9375 8.28125 C 13.106417 8.0429152 13.265765 7.8352888 13.375 7.6875 C 13.484235 7.5397112 13.609814 7.3901861 13.5 7.5 C 13.723223 7.2767767 13.952665 7.1875 14.1875 7.1875 z M 35.84375 13.0625 C 35.293297 13.12952 34.7562 13.331516 34.28125 13.65625 L 34.21875 13.6875 L 29.84375 16.40625 L 29.78125 16.4375 C 29.260918 16.712711 28.802889 17.200075 28.59375 17.84375 L 28.5625 17.8125 L 26.0625 23.8125 A 1.0001 1.0001 0 0 0 26.375 24.96875 C 26.375 24.96875 26.653531 25.12753 26.78125 25.21875 C 25.871624 26.382561 25.838234 28.025734 26.90625 29.09375 C 27.127683 29.315183 28.773498 31.081664 29.65625 32.0625 A 1.0001 1.0001 0 0 0 29.6875 32.09375 C 30.264277 32.670527 31.045833 33 31.8125 33 L 31.46875 33.5625 C 31.294672 33.662851 30.766131 33.988766 30 34.4375 C 29.56049 34.694928 29.09071 34.96337 28.71875 35.1875 C 28.34679 35.41163 28.128917 35.5205 27.90625 35.6875 A 1.0001 1.0001 0 0 0 27.78125 35.78125 C 26.627697 36.934803 26.627697 38.846447 27.78125 40 C 28.343295 40.562045 29.143901 40.881867 29.90625 40.84375 C 30.645604 40.80678 31.32947 40.500611 32 40.0625 C 32.01208 40.0546 32.01918 40.03923 32.03125 40.03125 C 32.03715 40.02775 32.05651 40.03485 32.0625 40.03125 C 32.811407 39.579271 33.885377 38.865724 34.84375 38.25 C 34.603215 38.606919 34.386947 38.964518 34.1875 39.25 C 34.071146 39.416545 33.951771 39.552671 33.875 39.65625 C 33.79823 39.759829 33.71072 39.85178 33.78125 39.78125 A 1.0001 1.0001 0 0 0 33.6875 39.9375 C 33.260525 40.547464 32.956894 41.200538 32.9375 41.9375 C 32.91811 42.674462 33.219205 43.437955 33.78125 44 C 34.934803 45.153553 36.846447 45.153553 38 44 C 38.184814 43.815186 38.220563 43.760414 38.34375 43.59375 C 38.466937 43.427086 38.607979 43.213228 38.78125 42.96875 C 39.127791 42.479795 39.580023 41.858026 40 41.25 C 40.485747 40.546755 40.625093 40.332037 40.9375 39.875 C 40.97088 41.312209 41.953088 42.584368 43.40625 42.875 A 1.0001 1.0001 0 0 0 43.4375 42.875 C 45.308813 43.162894 46.90625 41.661806 46.90625 39.90625 L 46.90625 29.8125 C 46.90625 28.668056 47.503234 27.623383 48.5625 27.09375 L 49.34375 26.6875 A 1.0001 1.0001 0 0 0 49.90625 25.8125 L 49.90625 14.1875 A 1.0001 1.0001 0 0 0 48.5625 13.25 L 43.875 14.84375 A 1.0001 1.0001 0 0 0 43.84375 14.875 C 43.300279 15.078802 42.480971 15.078802 41.9375 14.875 L 37.5625 13.25 C 37.5526 13.2463 37.54115 13.2536 37.53125 13.25 C 36.990132 13.052424 36.406806 12.993949 35.84375 13.0625 z M 36.09375 15.03125 C 36.34567 14.998531 36.593392 15.031115 36.84375 15.125 L 41.25 16.75 C 42.296841 17.142565 43.482021 17.135366 44.53125 16.75 L 44.5625 16.75 L 47.90625 15.59375 L 47.90625 25.1875 L 47.65625 25.3125 C 45.915516 26.182867 44.90625 27.956944 44.90625 29.8125 L 44.90625 39.90625 C 44.90625 40.539512 44.486708 40.996369 43.78125 40.90625 C 43.77165 40.90435 43.7595 40.90845 43.75 40.90625 C 43.242752 40.79021 42.90625 40.336029 42.90625 39.8125 L 42.90625 33.8125 A 1.0001 1.0001 0 0 0 40.9375 33.5625 L 39.90625 37.875 C 39.83478 37.979939 39.13862 38.974219 38.34375 40.125 C 37.926227 40.729474 37.494084 41.33583 37.15625 41.8125 C 36.987333 42.050835 36.827985 42.258461 36.71875 42.40625 C 36.609515 42.554039 36.483936 42.703564 36.59375 42.59375 C 36.147303 43.040197 35.665197 43.040197 35.21875 42.59375 C 34.980795 42.355795 34.931894 42.213038 34.9375 42 C 34.9427 41.801655 35.048514 41.47955 35.28125 41.125 C 35.29849 41.09874 35.29367 41.0894 35.3125 41.0625 C 35.36778 40.99564 35.44143 40.922773 35.5 40.84375 C 35.59549 40.714908 35.689791 40.581892 35.8125 40.40625 C 36.057918 40.054966 36.373117 39.609054 36.65625 39.1875 C 37.222516 38.344393 37.75 37.5625 37.75 37.5625 A 1.0001 1.0001 0 0 0 37.875 37.28125 L 39.0625 33.0625 A 1.0001 1.0001 0 0 0 37.25 32.25 L 34.875 35.875 C 34.607034 36.04762 31.897159 37.805455 31 38.34375 A 1.0001 1.0001 0 0 0 30.9375 38.375 C 30.428172 38.714552 30.050151 38.831867 29.8125 38.84375 C 29.574849 38.85563 29.456705 38.8317 29.21875 38.59375 C 28.780421 38.155421 28.79636 37.689958 29.21875 37.25 C 29.22655 37.2419 29.21065 37.22687 29.21875 37.21875 C 29.30141 37.16618 29.461778 37.048672 29.75 36.875 C 30.10929 36.658505 30.56451 36.411322 31 36.15625 C 31.870979 35.646105 32.6875 35.15625 32.6875 35.15625 A 1.0001 1.0001 0 0 0 33.0625 34.8125 L 34.46875 32.53125 A 1.0001 1.0001 0 0 0 33.59375 31 L 31.8125 31 C 31.59994 31 31.36161 30.899898 31.15625 30.71875 C 30.239002 29.699586 28.691067 28.066067 28.3125 27.6875 C 27.866053 27.241053 27.866053 26.758947 28.3125 26.3125 C 28.535723 26.089277 28.765165 25.96875 29 25.96875 C 29.234835 25.96875 29.464277 26.089277 29.6875 26.3125 L 32.09375 28.71875 A 1.0001 1.0001 0 0 0 32.8125 29 L 36 29 A 1.0001 1.0001 0 0 0 36.875 28.5 L 38.875 25 A 1.0001 1.0001 0 0 0 38.875 24 L 36.875 20.5 A 1.0001 1.0001 0 0 0 36 20 L 33.09375 20 A 1.0001 1.0001 0 0 0 32.1875 20.59375 C 31.914826 21.193633 31.539292 22.118342 31.03125 22.875 C 30.529494 23.622296 29.990283 24.057345 29.46875 24.09375 C 28.870955 24.08159 28.650754 23.880951 28.3125 23.6875 L 30.4375 18.59375 A 1.0001 1.0001 0 0 0 30.46875 18.4375 C 30.48315 18.3799 30.52888 18.298057 30.75 18.1875 A 1.0001 1.0001 0 0 0 30.84375 18.15625 L 35.34375 15.34375 A 1.0001 1.0001 0 0 0 35.375 15.3125 C 35.585712 15.161991 35.84183 15.063969 36.09375 15.03125 z M 33.6875 22 L 35.40625 22 L 36.84375 24.5 L 35.40625 27 L 33.21875 27 L 31.5 25.3125 C 31.985006 24.925341 32.36966 24.442129 32.6875 23.96875 C 33.199033 23.206892 33.441093 22.561772 33.6875 22 z M 14.59375 23 L 16.78125 23 L 18.5 24.6875 C 18.004188 25.069499 17.600557 25.552289 17.28125 26.03125 C 16.780263 26.78273 16.557946 27.439691 16.3125 28 L 14.59375 28 L 13.15625 25.5 L 14.59375 23 z" overflow="visible" enable-background="accumulate" font-family="Bitstream Vera Sans"/>
</svg>
