<?xml version="1.0" encoding="UTF-8"?>
<svg width="344px" height="149px" viewBox="0 0 344 149" version="1.1" xmlns="http://www.w3.org/2000/svg" xmlns:xlink="http://www.w3.org/1999/xlink">
    <!-- Generator: Sketch 47.1 (45422) - http://www.bohemiancoding.com/sketch -->
    <title>logo-green-large-black</title>
    <desc>Created with Sketch.</desc>
    <defs></defs>
    <g id="Page-1" stroke="none" stroke-width="1" fill="none" fill-rule="evenodd">
        <g id="logo-green-large-black">
            <path d="M43,86 C19.2517558,86 0,66.7482442 0,43 C0,19.2517558 19.2517558,0 43,0 C66.7482442,0 86,19.2517558 86,43 C86,66.7482442 66.7482442,86 43,86 Z M129,86 C105.251756,86 86,66.7482442 86,43 C86,19.2517558 105.251756,0 129,0 C152.748244,0 172,19.2517558 172,43 C172,66.7482442 152.748244,86 129,86 Z M215,86 C191.251756,86 172,66.7482442 172,43 C172,19.2517558 191.251756,0 215,0 C238.748244,0 258,19.2517558 258,43 C258,66.7482442 238.748244,86 215,86 Z M301,86 C277.251756,86 258,66.7482442 258,43 C258,19.2517558 277.251756,0 301,0 C324.748244,0 344,19.2517558 344,43 C344,66.7482442 324.748244,86 301,86 Z M34.6357422,27.1855469 L43.7880859,27.1855469 C48.2998272,27.1855469 51.3129807,28.4799675 52.8276367,31.0688477 C54.3422927,33.6577278 55.0996094,37.3691165 55.0996094,42.203125 C55.0996094,45.7050956 54.5947316,48.7236201 53.5849609,51.2587891 C51.7372954,55.8779528 48.4717031,58.1875 43.7880859,58.1875 L34.6357422,58.1875 L34.6357422,27.1855469 Z M52.8115234,19.9667969 C50.8564355,19.3222624 48.4072413,18.9785158 45.4638672,18.9355469 L25,18.9355469 L25,66.4375 L45.4638672,66.4375 C52.6396843,66.4375 57.9462719,63.483428 61.3837891,57.5751953 C63.918958,53.1923609 65.1865234,47.842805 65.1865234,41.5263672 C65.1865234,39.0341672 64.8857452,36.4130997 64.2841797,33.6630859 C63.6826142,30.9130722 62.5546958,28.3564571 60.9003906,25.9931641 C58.8378803,23.0712745 56.1416182,21.0625055 52.8115234,19.9667969 Z M145.790039,27.3466797 L145.790039,18.9355469 L110.953125,18.9355469 L110.953125,66.4375 L146.950195,66.4375 L146.950195,57.8974609 L120.65332,57.8974609 L120.65332,45.6835938 L143.727539,45.6835938 L143.727539,37.4335938 L120.65332,37.4335938 L120.65332,27.3466797 L145.790039,27.3466797 Z M207.671875,47.4873047 L213.794922,28.7958984 L219.724609,47.4873047 L207.671875,47.4873047 Z M208.28418,17.9355469 L191.333008,65.4375 L201.709961,65.4375 L204.99707,55.6728516 L222.496094,55.6728516 L225.557617,65.4375 L236.321289,65.4375 L219.499023,17.9355469 L208.28418,17.9355469 Z M284.347656,17 L284.347656,64.4375 L294.208984,64.4375 L294.208984,44.5214844 L315.05957,44.5214844 L315.05957,36.2714844 L294.208984,36.2714844 L294.208984,25.3466797 L318.024414,25.3466797 L318.024414,17 L284.347656,17 Z" id="DEAF-Copy-3" fill="#459835" fill-rule="nonzero"></path>
            <path d="M10.5712891,102.376953 L20.3496094,102.376953 L38.1201172,133.52832 L38.1201172,102.376953 L46.8085937,102.376953 L46.8085937,147 L37.484375,147 L19.2597656,115.303711 L19.2597656,147 L10.5712891,147 L10.5712891,102.376953 Z M80.9570312,102.376953 L91.5224609,102.376953 L76.5976562,130.228516 L76.5976562,147 L67.2734375,147 L67.2734375,130.228516 L51.8339844,102.376953 L62.8232422,102.376953 L72.0869141,121.8125 L80.9570312,102.376953 Z M101.179688,107.039062 C104.812518,103.365867 109.434217,101.529297 115.044922,101.529297 C122.552772,101.529297 128.0423,103.991512 131.513672,108.916016 C133.430999,111.681003 134.460286,114.456041 134.601562,117.241211 L125.277344,117.241211 C124.671872,115.101877 123.894862,113.48731 122.946289,112.397461 C121.250968,110.459951 118.738298,109.491211 115.408203,109.491211 C112.017561,109.491211 109.343434,110.858548 107.385742,113.593262 C105.42805,116.327976 104.449219,120.197892 104.449219,125.203125 C104.449219,130.208358 105.483551,133.957182 107.552246,136.449707 C109.620941,138.942233 112.249659,140.188477 115.438477,140.188477 C118.708024,140.188477 121.200512,139.118826 122.916016,136.979492 C123.864588,135.829096 124.65169,134.103527 125.277344,131.802734 L134.510742,131.802734 C133.703446,136.666691 131.639828,140.622381 128.319824,143.669922 C124.999821,146.717463 120.746445,148.241211 115.55957,148.241211 C109.141569,148.241211 104.096047,146.182638 100.422852,142.06543 C96.7496561,137.928039 94.9130859,132.256872 94.9130859,125.051758 C94.9130859,117.261354 97.0019322,111.257183 101.179688,107.039062 Z M158.699219,102.376953 L168.477539,102.376953 L186.248047,133.52832 L186.248047,102.376953 L194.936523,102.376953 L194.936523,147 L185.612305,147 L167.387695,115.303711 L167.387695,147 L158.699219,147 L158.699219,102.376953 Z M236.623047,110.27832 L213.009766,110.27832 L213.009766,119.753906 L234.685547,119.753906 L234.685547,127.503906 L213.009766,127.503906 L213.009766,138.977539 L237.712891,138.977539 L237.712891,147 L203.897461,147 L203.897461,102.376953 L236.623047,102.376953 L236.623047,110.27832 Z M251.063477,102.376953 L256.966797,127.927734 L258.238281,135.041992 L259.540039,128.079102 L264.56543,102.376953 L274.404297,102.376953 L279.702148,127.927734 L281.064453,135.041992 L282.426758,128.200195 L288.390625,102.376953 L297.866211,102.376953 L285.302734,147 L276.402344,147 L271.013672,120.904297 L269.439453,112.276367 L267.865234,120.904297 L262.476562,147 L253.818359,147 L241.164062,102.376953 L251.063477,102.376953 Z M310.248047,133.225586 C310.5306,135.264008 311.085608,136.787755 311.913086,137.796875 C313.426765,139.633473 316.020164,140.551758 319.693359,140.551758 C321.89324,140.551758 323.679355,140.309573 325.051758,139.825195 C327.655286,138.896805 328.957031,137.171237 328.957031,134.648438 C328.957031,133.175123 328.311204,132.034835 327.019531,131.227539 C325.727858,130.440426 323.699558,129.744144 320.93457,129.138672 L316.211914,128.079102 C311.569964,127.029617 308.361011,125.889329 306.584961,124.658203 C303.577784,122.599599 302.074219,119.380556 302.074219,115.000977 C302.074219,111.004863 303.527329,107.684909 306.433594,105.041016 C309.339858,102.397122 313.60837,101.075195 319.239258,101.075195 C323.941755,101.075195 327.952946,102.321439 331.272949,104.813965 C334.592953,107.30649 336.333658,110.92413 336.495117,115.666992 L327.53418,115.666992 C327.372721,112.982734 326.202159,111.075526 324.022461,109.945312 C322.569329,109.198564 320.763032,108.825195 318.603516,108.825195 C316.201811,108.825195 314.284512,109.309565 312.851562,110.27832 C311.418613,111.247075 310.702148,112.599275 310.702148,114.334961 C310.702148,115.92937 311.408522,117.120113 312.821289,117.907227 C313.729497,118.431969 315.666977,119.047523 318.633789,119.753906 L326.323242,121.600586 C329.693702,122.407882 332.236645,123.487623 333.952148,124.839844 C336.616224,126.938813 337.948242,129.976217 337.948242,133.952148 C337.948242,138.028992 336.389176,141.414537 333.270996,144.108887 C330.152816,146.803236 325.748075,148.150391 320.056641,148.150391 C314.244112,148.150391 309.672868,146.823418 306.342773,144.169434 C303.012679,141.515449 301.347656,137.867536 301.347656,133.225586 L310.248047,133.225586 Z" id="NYC-NEWS" fill="#000000"></path>
        </g>
    </g>
</svg>