<?xml version="1.0" encoding="UTF-8"?>
<svg width="412px" height="113px" viewBox="0 0 412 113" version="1.1" xmlns="http://www.w3.org/2000/svg" xmlns:xlink="http://www.w3.org/1999/xlink">
    <!-- Generator: Sketch 47.1 (45422) - http://www.bohemiancoding.com/sketch -->
    <title>Group 5 Copy 2</title>
    <desc>Created with Sketch.</desc>
    <defs></defs>
    <g id="Page-1" stroke="none" stroke-width="1" fill="none" fill-rule="evenodd">
        <g id="Group-5-Copy-2">
            <g id="Group-4-Copy-4">
                <g id="Group-Copy-2" transform="translate(123.000000, 0.000000)" fill="#019C1D">
                    <g id="Group-2">
                        <ellipse id="Oval-2-Copy-18" cx="20.8438135" cy="20.925" rx="20.8438135" ry="20.925"></ellipse>
                        <ellipse id="Oval-2-Copy-19" style="mix-blend-mode: screen;" cx="62.5314406" cy="20.925" rx="20.8438135" ry="20.925"></ellipse>
                        <ellipse id="Oval-2-Copy-20" style="mix-blend-mode: screen;" cx="104.219068" cy="20.925" rx="20.8438135" ry="20.925"></ellipse>
                        <ellipse id="Oval-2-Copy-21" cx="145.906695" cy="20.925" rx="20.8438135" ry="20.925"></ellipse>
                    </g>
                </g>
                <path d="M8.81247578,74.4666235 L8.81247578,103.14582 L17.1828541,103.14582 C21.4663086,103.14582 24.4528926,101.009311 26.1426957,96.7362281 C27.0661928,94.3910015 27.5279344,91.5986336 27.5279344,88.3590408 C27.5279344,83.8872103 26.835322,80.4538897 25.4500764,78.058976 C24.0648308,75.6640623 21.3091176,74.4666235 17.1828541,74.4666235 L8.81247578,74.4666235 Z M25.4353398,67.7887233 C28.4809152,68.8023382 30.9468119,70.6606043 32.8331038,73.3635774 C34.346067,75.5498057 35.3776174,77.9148717 35.9277859,80.4588464 C36.4779544,83.0028211 36.7530345,85.4275106 36.7530345,87.7329877 C36.7530345,93.5761796 35.5937683,98.5249311 33.2752012,102.579391 C30.1313814,108.044961 25.2781824,110.777706 18.7154586,110.777706 L0,110.777706 L0,66.8347375 L18.7154586,66.8347375 C21.4073543,66.8744871 23.6472923,67.1924792 25.4353398,67.7887233 Z M48.3185716,86.272197 C47.247708,87.5044348 46.5747442,89.1738931 46.29966,91.2806222 L59.3562712,91.2806222 C59.2187291,89.0347695 58.5457653,87.3305308 57.3373596,86.1678548 C56.1289538,85.0051789 54.6307497,84.4238496 52.8427022,84.4238496 C50.8974637,84.4238496 49.3894353,85.0399593 48.3185716,86.272197 Z M60.0636272,78.9384316 C62.2053544,79.9520465 63.9737265,81.5519441 65.3687965,83.7381724 C66.6263244,85.6660282 67.4417405,87.9019099 67.8150691,90.4458846 C68.0312067,91.9364948 68.1196253,94.0829413 68.0803275,96.8852884 L46.0933478,96.8852884 C46.2112411,100.144756 47.2231429,102.430324 49.1290836,103.742061 C50.2883672,104.556928 51.6834163,104.964355 53.3142728,104.964355 C55.0433737,104.964355 56.4482471,104.467493 57.5289351,103.473752 C58.1184013,102.937133 58.6390887,102.191839 59.0910128,101.237848 L67.6677033,101.237848 C67.4515656,103.165704 66.4593124,105.123343 64.6909138,107.110823 C61.9400715,110.270917 58.08895,111.85094 53.1374338,111.85094 C49.0504681,111.85094 45.4449539,110.519348 42.3207829,107.856124 C39.196612,105.192901 37.63455,100.860259 37.63455,94.8580687 C37.63455,89.2334996 39.0443355,84.9207322 41.8639489,81.9196371 C44.6835623,78.9185419 48.3431101,77.4180169 52.8427022,77.4180169 C55.514949,77.4180169 57.9218999,77.9248167 60.0636272,78.9384316 Z M88.7088624,94.9773169 C88.1783428,95.3151886 87.642919,95.588463 87.102575,95.7971484 C86.562231,96.0058338 85.8204971,96.1996103 84.8773512,96.3784835 L82.9910687,96.7362281 C81.2226701,97.054225 79.9553368,97.4417778 79.1890307,97.8988983 C77.892205,98.6740155 77.2438019,99.876423 77.2438019,101.506157 C77.2438019,102.957017 77.6416856,104.005398 78.437465,104.651329 C79.2332444,105.29726 80.2009369,105.62022 81.3405716,105.62022 C83.148268,105.62022 84.813485,105.083609 86.3362728,104.010369 C87.8590605,102.93713 88.6499158,100.979491 88.7088624,98.1373947 L88.7088624,94.9773169 Z M83.6100052,91.0123137 C85.1622662,90.8135657 86.2724109,90.5651343 86.9404726,90.2670123 C88.1390539,89.7502675 88.7383355,88.94535 88.7383355,87.8522359 C88.7383355,86.5206241 88.2815061,85.6014283 87.3678335,85.0946209 C86.4541608,84.5878134 85.1131453,84.3344135 83.3447467,84.3344135 C81.3602104,84.3344135 79.9553371,84.8312761 79.1300844,85.8250162 C78.5406181,86.5603839 78.1476466,87.5541091 77.9511578,88.8062216 L69.846038,88.8062216 C70.0228778,85.9641249 70.808821,83.6288707 72.203891,81.8003889 C74.4242137,78.9384173 78.2360381,77.507453 83.6394783,77.507453 C87.1566267,77.507453 90.2807508,78.2129979 93.0119442,79.6241089 C95.7431376,81.0352198 97.1087139,83.6984034 97.1087139,87.6137395 L97.1087139,102.519767 C97.1087139,103.553256 97.1283625,104.80535 97.1676602,106.276086 C97.2266068,107.389074 97.3936198,108.144306 97.668704,108.541802 C97.9437882,108.939298 98.3564084,109.267227 98.9065768,109.525599 L98.9065768,110.777706 L89.7698963,110.777706 C89.5144609,110.121837 89.3376237,109.505728 89.2393793,108.929358 C89.141135,108.352989 89.0625406,107.69713 89.003594,106.961763 C87.8443105,108.23375 86.5082071,109.316911 84.9952438,110.211277 C83.1875474,111.264641 81.1440952,111.791316 78.8648259,111.791316 C75.9567926,111.791316 73.5547538,110.951618 71.6586375,109.272197 C69.7625212,107.592776 68.8144773,105.212804 68.8144773,102.13221 C68.8144773,98.1373747 70.3372421,95.2456343 73.3828175,93.4569021 C75.0529718,92.4830368 77.5090442,91.7874292 80.7511083,91.3700583 L83.6100052,91.0123137 Z M115.114137,66.4322748 C115.546412,66.462087 116.13587,66.5068046 116.882527,66.566429 L116.882527,73.4828257 C116.410954,73.4232013 115.620099,73.3784836 114.509937,73.3486714 C113.399776,73.3188592 112.633481,73.5672905 112.211031,74.0939728 C111.78858,74.620655 111.577358,75.2019843 111.577358,75.837978 L111.577358,78.580687 L117.088839,78.580687 L117.088839,84.5729099 L111.577358,84.5729099 L111.577358,110.777706 L103.206979,110.777706 L103.206979,84.5729099 L98.5207464,84.5729099 L98.5207464,78.580687 L103.11856,78.580687 L103.11856,76.4938432 C103.11856,73.0157528 103.698193,70.620875 104.857476,69.309138 C106.075707,67.3614074 109.013169,66.3875567 113.669952,66.3875567 C114.200472,66.3875567 114.681862,66.4024626 115.114137,66.4322748 Z M133.735818,66.8347375 L143.255649,66.8347375 L160.556396,97.5113415 L160.556396,66.8347375 L169.015194,66.8347375 L169.015194,110.777706 L159.93746,110.777706 L142.194615,79.5644848 L142.194615,110.777706 L133.735818,110.777706 L133.735818,66.8347375 Z M199.517238,66.8347375 L209.803372,66.8347375 L195.273103,94.2618276 L195.273103,110.777706 L186.195369,110.777706 L186.195369,94.2618276 L171.164055,66.8347375 L181.862814,66.8347375 L190.881602,85.9740765 L199.517238,66.8347375 Z M216.461628,71.4257939 C219.998425,67.8085799 224.49795,66 229.960337,66 C237.269718,66 242.614131,68.4246895 245.993737,73.2741413 C247.86038,75.9969892 248.862458,78.7297335 249,81.4724563 L239.922266,81.4724563 C239.3328,79.3657272 238.576329,77.7757669 237.652832,76.7025275 C236.002327,74.7945465 233.556079,73.8405703 230.314015,73.8405703 C227.013004,73.8405703 224.409567,75.187068 222.503626,77.8801037 C220.597686,80.5731394 219.644729,84.3840756 219.644729,89.3130266 C219.644729,94.2419776 220.651719,97.9336667 222.665729,100.388205 C224.679738,102.842743 227.238966,104.069994 230.343488,104.069994 C233.526605,104.069994 235.953205,103.016645 237.623359,100.909916 C238.546856,99.777052 239.313151,98.0777819 239.922266,95.8120544 L248.911581,95.8120544 C248.125626,100.601882 246.116558,104.497285 242.884319,107.49838 C239.652079,110.499475 235.511141,112 230.46138,112 C224.213039,112 219.300894,109.972801 215.724799,105.918341 C212.148704,101.844006 210.360683,96.2592707 210.360683,89.1639663 C210.360683,81.4922926 212.394311,75.5796276 216.461628,71.4257939 Z" id="Deaf-NYC-Weekly-Copy" fill="#FFFFFF"></path>
            </g>
            <path d="M261,68 L270.462891,68 L287.660156,98.1464844 L287.660156,68 L296.068359,68 L296.068359,111.183594 L287.044922,111.183594 L269.408203,80.5097656 L269.408203,111.183594 L261,111.183594 L261,68 Z M311.90332,87.1015625 C310.838862,88.3125061 310.169923,89.9531146 309.896484,92.0234375 L322.875,92.0234375 C322.738281,89.8163952 322.069342,88.1416073 320.868164,86.9990234 C319.666986,85.8564396 318.177743,85.2851562 316.400391,85.2851562 C314.466787,85.2851562 312.967779,85.8906189 311.90332,87.1015625 Z M323.578125,79.8945312 C325.707042,80.89063 327.464837,82.4628799 328.851562,84.6113281 C330.101569,86.5058688 330.912108,88.7031125 331.283203,91.203125 C331.498048,92.6679761 331.585938,94.77733 331.546875,97.53125 L309.691406,97.53125 C309.808594,100.734391 310.814444,102.980462 312.708984,104.269531 C313.861334,105.070317 315.248039,105.470703 316.869141,105.470703 C318.587899,105.470703 319.98437,104.982427 321.058594,104.005859 C321.644534,103.478513 322.162107,102.746098 322.611328,101.808594 L331.136719,101.808594 C330.921874,103.703134 329.935556,105.626943 328.177734,107.580078 C325.443346,110.685562 321.615259,112.238281 316.693359,112.238281 C312.630839,112.238281 309.046891,110.929701 305.941406,108.3125 C302.835922,105.695299 301.283203,101.437529 301.283203,95.5390625 C301.283203,90.0116911 302.684556,85.7734522 305.487305,82.8242188 C308.290053,79.8749853 311.927712,78.4003906 316.400391,78.4003906 C319.056654,78.4003906 321.449208,78.8984325 323.578125,79.8945312 Z M352.230469,79.25 L360.697266,79.25 L365.560547,102.248047 L370.541016,79.25 L379.242188,79.25 L369.984375,111.183594 L361.400391,111.183594 L356.390625,87.921875 L351.322266,111.183594 L342.650391,111.183594 L333.685547,79.25 L342.650391,79.25 L347.630859,102.160156 L352.230469,79.25 Z M390.345703,100.988281 C390.521485,102.472664 390.902341,103.527341 391.488281,104.152344 C392.523443,105.265631 394.437486,105.822266 397.230469,105.822266 C398.871102,105.822266 400.1748,105.578127 401.141602,105.089844 C402.108403,104.60156 402.591797,103.869146 402.591797,102.892578 C402.591797,101.955073 402.201176,101.24219 401.419922,100.753906 C400.638668,100.265623 397.738306,99.4257872 392.71875,98.234375 C389.105451,97.335933 386.556648,96.2128974 385.072266,94.8652344 C383.587883,93.5371027 382.845703,91.6230594 382.845703,89.1230469 C382.845703,86.1738134 384.002918,83.639659 386.317383,81.5205078 C388.631848,79.4013566 391.888651,78.3417969 396.087891,78.3417969 C400.072286,78.3417969 403.319323,79.1376874 405.829102,80.7294922 C408.33888,82.321297 409.779295,85.070293 410.150391,88.9765625 L401.800781,88.9765625 C401.683593,87.9023384 401.380862,87.0527375 400.892578,86.4277344 C399.974605,85.2949162 398.41212,84.7285156 396.205078,84.7285156 C394.388663,84.7285156 393.09473,85.0117159 392.323242,85.578125 C391.551754,86.1445341 391.166016,86.8085899 391.166016,87.5703125 C391.166016,88.5273485 391.576168,89.220701 392.396484,89.6503906 C393.216801,90.0996116 396.117163,90.8710883 401.097656,91.9648438 C404.417985,92.7460977 406.908195,93.9277265 408.568359,95.5097656 C410.208993,97.1113361 411.029297,99.1132692 411.029297,101.515625 C411.029297,104.679703 409.852551,107.262685 407.499023,109.264648 C405.145496,111.266612 401.507837,112.267578 396.585938,112.267578 C391.566381,112.267578 387.860364,111.208018 385.467773,109.088867 C383.075183,106.969716 381.878906,104.269548 381.878906,100.988281 L390.345703,100.988281 Z" id="News-Copy" fill="#FFFFFF"></path>
        </g>
    </g>
</svg>