<?xml version="1.0" encoding="UTF-8"?>
<svg width="249px" height="167px" viewBox="0 0 249 167" version="1.1" xmlns="http://www.w3.org/2000/svg" xmlns:xlink="http://www.w3.org/1999/xlink">
    <!-- Generator: Sketch 47.1 (45422) - http://www.bohemiancoding.com/sketch -->
    <title>Group 4 Copy 3</title>
    <desc>Created with Sketch.</desc>
    <defs></defs>
    <g id="Page-1" stroke="none" stroke-width="1" fill="none" fill-rule="evenodd">
        <g id="Group-4-Copy-3">
            <g id="Group-Copy-2" transform="translate(81.000000, 0.000000)">
                <g id="Group-2" transform="translate(0.285424, 0.000000)">
                    <ellipse id="Oval-2-Copy-18" fill="#FF8200" cx="20.8438135" cy="20.925" rx="20.8438135" ry="20.925"></ellipse>
                    <ellipse id="Oval-2-Copy-19" fill="#284AFE" style="mix-blend-mode: screen;" cx="62.5314406" cy="20.925" rx="20.8438135" ry="20.925"></ellipse>
                    <rect id="Rectangle-6" fill="#284AFE" x="63" y="0" width="42" height="42"></rect>
                    <ellipse id="Oval-2-Copy-20" fill="#284AFE" style="mix-blend-mode: screen;" cx="104.219068" cy="20.925" rx="20.8438135" ry="20.925"></ellipse>
                    <ellipse id="Oval-2-Copy-21" fill="#FF8200" cx="145.906695" cy="20.925" rx="20.8438135" ry="20.925"></ellipse>
                </g>
            </g>
            <path d="M8.81247578,61.4666235 L8.81247578,90.1458198 L17.1828541,90.1458198 C21.4663086,90.1458198 24.4528926,88.0093106 26.1426957,83.7362281 C27.0661928,81.3910015 27.5279344,78.5986336 27.5279344,75.3590408 C27.5279344,70.8872103 26.835322,67.4538897 25.4500764,65.058976 C24.0648308,62.6640623 21.3091176,61.4666235 17.1828541,61.4666235 L8.81247578,61.4666235 Z M25.4353398,54.7887233 C28.4809152,55.8023382 30.9468119,57.6606043 32.8331038,60.3635774 C34.346067,62.5498057 35.3776174,64.9148717 35.9277859,67.4588464 C36.4779544,70.0028211 36.7530345,72.4275106 36.7530345,74.7329877 C36.7530345,80.5761796 35.5937683,85.5249311 33.2752012,89.5793908 C30.1313814,95.0449614 25.2781824,97.7777058 18.7154586,97.7777058 L0,97.7777058 L0,53.8347375 L18.7154586,53.8347375 C21.4073543,53.8744871 23.6472923,54.1924792 25.4353398,54.7887233 Z M48.3185716,73.272197 C47.247708,74.5044348 46.5747442,76.1738931 46.29966,78.2806222 L59.3562712,78.2806222 C59.2187291,76.0347695 58.5457653,74.3305308 57.3373596,73.1678548 C56.1289538,72.0051789 54.6307497,71.4238496 52.8427022,71.4238496 C50.8974637,71.4238496 49.3894353,72.0399593 48.3185716,73.272197 Z M60.0636272,65.9384316 C62.2053544,66.9520465 63.9737265,68.5519441 65.3687965,70.7381724 C66.6263244,72.6660282 67.4417405,74.9019099 67.8150691,77.4458846 C68.0312067,78.9364948 68.1196253,81.0829413 68.0803275,83.8852884 L46.0933478,83.8852884 C46.2112411,87.144756 47.2231429,89.430324 49.1290836,90.7420609 C50.2883672,91.5569278 51.6834163,91.9643552 53.3142728,91.9643552 C55.0433737,91.9643552 56.4482471,91.4674925 57.5289351,90.4737524 C58.1184013,89.9371328 58.6390887,89.1918389 59.0910128,88.2378483 L67.6677033,88.2378483 C67.4515656,90.1657042 66.4593124,92.1233428 64.6909138,94.1108231 C61.9400715,97.2709166 58.08895,98.8509397 53.1374338,98.8509397 C49.0504681,98.8509397 45.4449539,97.5193479 42.3207829,94.8561244 C39.196612,92.1929009 37.63455,87.860259 37.63455,81.8580687 C37.63455,76.2334996 39.0443355,71.9207322 41.8639489,68.9196371 C44.6835623,65.9185419 48.3431101,64.4180169 52.8427022,64.4180169 C55.514949,64.4180169 57.9218999,64.9248167 60.0636272,65.9384316 Z M88.7088624,81.9773169 C88.1783428,82.3151886 87.642919,82.588463 87.102575,82.7971484 C86.562231,83.0058338 85.8204971,83.1996103 84.8773512,83.3784835 L82.9910687,83.7362281 C81.2226701,84.054225 79.9553368,84.4417778 79.1890307,84.8988983 C77.892205,85.6740155 77.2438019,86.876423 77.2438019,88.5061568 C77.2438019,89.9570174 77.6416856,91.0053975 78.437465,91.6513286 C79.2332444,92.2972597 80.2009369,92.6202203 81.3405716,92.6202203 C83.148268,92.6202203 84.813485,92.0836087 86.3362728,91.0103694 C87.8590605,89.9371301 88.6499158,87.9794914 88.7088624,85.1373947 L88.7088624,81.9773169 Z M83.6100052,78.0123137 C85.1622662,77.8135657 86.2724109,77.5651343 86.9404726,77.2670123 C88.1390539,76.7502675 88.7383355,75.94535 88.7383355,74.8522359 C88.7383355,73.5206241 88.2815061,72.6014283 87.3678335,72.0946209 C86.4541608,71.5878134 85.1131453,71.3344135 83.3447467,71.3344135 C81.3602104,71.3344135 79.9553371,71.8312761 79.1300844,72.8250162 C78.5406181,73.5603839 78.1476466,74.5541091 77.9511578,75.8062216 L69.846038,75.8062216 C70.0228778,72.9641249 70.808821,70.6288707 72.203891,68.8003889 C74.4242137,65.9384173 78.2360381,64.507453 83.6394783,64.507453 C87.1566267,64.507453 90.2807508,65.2129979 93.0119442,66.6241089 C95.7431376,68.0352198 97.1087139,70.6984034 97.1087139,74.6137395 L97.1087139,89.5197667 C97.1087139,90.5532564 97.1283625,91.8053502 97.1676602,93.2760855 C97.2266068,94.3890745 97.3936198,95.1443056 97.668704,95.5418017 C97.9437882,95.9392977 98.3564084,96.2672271 98.9065768,96.5255995 L98.9065768,97.7777058 L89.7698963,97.7777058 C89.5144609,97.1218373 89.3376237,96.5057277 89.2393793,95.9293584 C89.141135,95.3529891 89.0625406,94.6971305 89.003594,93.9617628 C87.8443105,95.2337501 86.5082071,96.3169106 84.9952438,97.2112767 C83.1875474,98.2646413 81.1440952,98.7913156 78.8648259,98.7913156 C75.9567926,98.7913156 73.5547538,97.9516178 71.6586375,96.272197 C69.7625212,94.5927762 68.8144773,92.2128043 68.8144773,89.13221 C68.8144773,85.1373747 70.3372421,82.2456343 73.3828175,80.4569021 C75.0529718,79.4830368 77.5090442,78.7874292 80.7511083,78.3700583 L83.6100052,78.0123137 Z M115.114137,53.4322748 C115.546412,53.462087 116.13587,53.5068046 116.882527,53.566429 L116.882527,60.4828257 C116.410954,60.4232013 115.620099,60.3784836 114.509937,60.3486714 C113.399776,60.3188592 112.633481,60.5672905 112.211031,61.0939728 C111.78858,61.620655 111.577358,62.2019843 111.577358,62.837978 L111.577358,65.580687 L117.088839,65.580687 L117.088839,71.5729099 L111.577358,71.5729099 L111.577358,97.7777058 L103.206979,97.7777058 L103.206979,71.5729099 L98.5207464,71.5729099 L98.5207464,65.580687 L103.11856,65.580687 L103.11856,63.4938432 C103.11856,60.0157528 103.698193,57.620875 104.857476,56.309138 C106.075707,54.3614074 109.013169,53.3875567 113.669952,53.3875567 C114.200472,53.3875567 114.681862,53.4024626 115.114137,53.4322748 Z M133.735818,53.8347375 L143.255649,53.8347375 L160.556396,84.5113415 L160.556396,53.8347375 L169.015194,53.8347375 L169.015194,97.7777058 L159.93746,97.7777058 L142.194615,66.5644848 L142.194615,97.7777058 L133.735818,97.7777058 L133.735818,53.8347375 Z M199.517238,53.8347375 L209.803372,53.8347375 L195.273103,81.2618276 L195.273103,97.7777058 L186.195369,97.7777058 L186.195369,81.2618276 L171.164055,53.8347375 L181.862814,53.8347375 L190.881602,72.9740765 L199.517238,53.8347375 Z M216.461628,58.4257939 C219.998425,54.8085799 224.49795,53 229.960337,53 C237.269718,53 242.614131,55.4246895 245.993737,60.2741413 C247.86038,62.9969892 248.862458,65.7297335 249,68.4724563 L239.922266,68.4724563 C239.3328,66.3657272 238.576329,64.7757669 237.652832,63.7025275 C236.002327,61.7945465 233.556079,60.8405703 230.314015,60.8405703 C227.013004,60.8405703 224.409567,62.187068 222.503626,64.8801037 C220.597686,67.5731394 219.644729,71.3840756 219.644729,76.3130266 C219.644729,81.2419776 220.651719,84.9336667 222.665729,87.3882048 C224.679738,89.8427429 227.238966,91.0699935 230.343488,91.0699935 C233.526605,91.0699935 235.953205,90.0166448 237.623359,87.9099157 C238.546856,86.777052 239.313151,85.0777819 239.922266,82.8120544 L248.911581,82.8120544 C248.125626,87.6018818 246.116558,91.4972846 242.884319,94.4983798 C239.652079,97.4994749 235.511141,99 230.46138,99 C224.213039,99 219.300894,96.9728006 215.724799,92.9183409 C212.148704,88.8440064 210.360683,83.2592707 210.360683,76.1639663 C210.360683,68.4922926 212.394311,62.5796276 216.461628,58.4257939 Z" id="Deaf-NYC-Weekly-Copy" fill="#FFFFFF"></path>
            <g id="Group-Copy-3" transform="translate(57.000000, 110.000000)" fill-opacity="0.538581295" fill="#FFFFFF">
                <path d="M10.0582851,0.150620404 L15.8109176,25.0226333 L17.0499461,31.9478975 L18.3184753,25.1699793 L23.2155881,0.150620404 L32.8033089,0.150620404 L37.9659278,25.0226333 L39.2934584,31.9478975 L40.6209889,25.2878562 L46.4326228,0.150620404 L55.6663354,0.150620404 L43.4235535,43.5882353 L34.7503537,43.5882353 L29.4992328,18.1857767 L27.9651975,9.78705193 L26.4311622,18.1857767 L21.1800412,43.5882353 L12.7428469,43.5882353 L0.411562972,0.150620404 L10.0582851,0.150620404 Z M76.5796352,12.1151195 C78.7233619,13.1170776 80.493385,14.6985761 81.8897575,16.8596622 C83.1484594,18.7653473 83.9646367,20.9755159 84.3383139,23.4902344 C84.5546533,24.9637022 84.6431544,27.0854641 84.60382,29.8555836 L62.5963132,29.8555836 C62.7143165,33.0775667 63.727163,35.3368501 65.6348831,36.6335018 C66.795249,37.4389976 68.1916005,37.8417394 69.8239796,37.8417394 C71.5546948,37.8417394 72.9608798,37.3505908 74.0425768,36.368279 C74.6325933,35.8378305 75.1537668,35.1011077 75.6061128,34.1580882 L84.1908105,34.1580882 C83.9744711,36.0637733 82.9812915,37.9988987 81.2112418,39.9635225 C78.4578313,43.0872744 74.6031145,44.6491268 69.6469755,44.6491268 C65.5561942,44.6491268 61.9473139,43.3328486 58.8202262,40.7002528 C55.6931386,38.0676569 54.1296182,33.7848412 54.1296182,27.8516774 C54.1296182,22.2917921 55.5407199,18.0286224 58.3629657,15.0620404 C61.1852115,12.0954585 64.8481758,10.6121898 69.3519687,10.6121898 C72.0267104,10.6121898 74.4359084,11.1131614 76.5796352,12.1151195 Z M64.8236145,19.364545 C63.7517511,20.5826118 63.078159,22.232871 62.8028179,24.3153722 L75.8716189,24.3153722 C75.7339484,22.0953474 75.0603562,20.4107077 73.8508223,19.2614028 C72.6412884,18.1120979 71.1416856,17.537454 69.3519687,17.537454 C67.4049142,17.537454 65.8954778,18.1464783 64.8236145,19.364545 Z M107.434664,12.1151195 C109.578391,13.1170776 111.348414,14.6985761 112.744786,16.8596622 C114.003488,18.7653473 114.819665,20.9755159 115.193343,23.4902344 C115.409682,24.9637022 115.498183,27.0854641 115.458849,29.8555836 L93.4513419,29.8555836 C93.5693452,33.0775667 94.5821917,35.3368501 96.4899119,36.6335018 C97.6502777,37.4389976 99.0466293,37.8417394 100.679008,37.8417394 C102.409724,37.8417394 103.815909,37.3505908 104.897605,36.368279 C105.487622,35.8378305 106.008795,35.1011077 106.461142,34.1580882 L115.045839,34.1580882 C114.8295,36.0637733 113.83632,37.9988987 112.066271,39.9635225 C109.31286,43.0872744 105.458143,44.6491268 100.502004,44.6491268 C96.411223,44.6491268 92.8023426,43.3328486 89.675255,40.7002528 C86.5481673,38.0676569 84.9846469,33.7848412 84.9846469,27.8516774 C84.9846469,22.2917921 86.3957487,18.0286224 89.2179944,15.0620404 C92.0402402,12.0954585 95.7032046,10.6121898 100.206997,10.6121898 C102.881739,10.6121898 105.290937,11.1131614 107.434664,12.1151195 Z M95.6786432,19.364545 C94.6067798,20.5826118 93.9331877,22.232871 93.6578467,24.3153722 L106.726648,24.3153722 C106.588977,22.0953474 105.915385,20.4107077 104.705851,19.2614028 C103.496317,18.1120979 101.996714,17.537454 100.206997,17.537454 C98.2599429,17.537454 96.7505066,18.1464783 95.6786432,19.364545 Z M118.288232,0.297966452 L126.548422,0.297966452 L126.548422,23.6965188 L137.021163,11.6141429 L147.434903,11.6141429 L136.195144,23.9028033 L147.877413,43.5882353 L137.72918,43.5882353 L130.029502,29.8555836 L126.548422,33.4802964 L126.548422,43.5882353 L118.288232,43.5882353 L118.288232,0.297966452 Z M157.816461,43.5882353 L149.408767,43.5882353 L149.408767,0.150620404 L157.816461,0.150620404 L157.816461,43.5882353 Z M164.569434,49.7473001 L165.631459,49.8062385 C166.457482,49.845531 167.244159,49.8160621 167.991513,49.7178309 C168.738867,49.6195997 169.368209,49.3936713 169.879557,49.0400391 C170.371237,48.706053 170.828493,48.008622 171.251338,46.9477252 C171.674183,45.8868283 171.846269,45.2385122 171.7676,45.0027574 L159.967328,11.4667969 L169.319044,11.4667969 L176.340205,35.1600414 L182.977858,11.4667969 L191.916564,11.4667969 L180.88331,43.0577895 C178.75925,49.1481233 177.077728,52.9250559 175.838694,54.3887006 C174.599659,55.8523453 172.121627,56.5841567 168.404523,56.5841567 C167.657168,56.5841567 167.057327,56.5792452 166.604981,56.5694221 C166.152635,56.559599 165.474126,56.5252186 164.569434,56.4662799 L164.569434,49.7473001 Z" id="Combined-Shape"></path>
            </g>
        </g>
    </g>
</svg>