<?xml version="1.0" encoding="UTF-8"?>
<svg width="456px" height="126px" viewBox="0 0 456 126" version="1.1" xmlns="http://www.w3.org/2000/svg" xmlns:xlink="http://www.w3.org/1999/xlink">
    <!-- Generator: Sketch 47.1 (45422) - http://www.bohemiancoding.com/sketch -->
    <title>Group 4 Copy</title>
    <desc>Created with Sketch.</desc>
    <defs></defs>
    <g id="Page-1" stroke="none" stroke-width="1" fill="none" fill-rule="evenodd">
        <g id="Group-4-Copy">
            <g id="Group-Copy-2" transform="translate(132.000000, 0.000000)">
                <g id="Group-2" transform="translate(0.285424, 0.000000)">
                    <ellipse id="Oval-2-Copy-18" fill="#FF8200" cx="20.8438135" cy="20.925" rx="20.8438135" ry="20.925"></ellipse>
                    <ellipse id="Oval-2-Copy-19" fill="#284AFE" style="mix-blend-mode: screen;" cx="62.5314406" cy="20.925" rx="20.8438135" ry="20.925"></ellipse>
                    <ellipse id="Oval-2-Copy-20" fill="#284AFE" style="mix-blend-mode: screen;" cx="104.219068" cy="20.925" rx="20.8438135" ry="20.925"></ellipse>
                    <ellipse id="Oval-2-Copy-21" fill="#FF8200" cx="145.906695" cy="20.925" rx="20.8438135" ry="20.925"></ellipse>
                </g>
            </g>
            <path d="M8.81247578,75.4666235 L8.81247578,104.14582 L17.1828541,104.14582 C21.4663086,104.14582 24.4528926,102.009311 26.1426957,97.7362281 C27.0661928,95.3910015 27.5279344,92.5986336 27.5279344,89.3590408 C27.5279344,84.8872103 26.835322,81.4538897 25.4500764,79.058976 C24.0648308,76.6640623 21.3091176,75.4666235 17.1828541,75.4666235 L8.81247578,75.4666235 Z M25.4353398,68.7887233 C28.4809152,69.8023382 30.9468119,71.6606043 32.8331038,74.3635774 C34.346067,76.5498057 35.3776174,78.9148717 35.9277859,81.4588464 C36.4779544,84.0028211 36.7530345,86.4275106 36.7530345,88.7329877 C36.7530345,94.5761796 35.5937683,99.5249311 33.2752012,103.579391 C30.1313814,109.044961 25.2781824,111.777706 18.7154586,111.777706 L0,111.777706 L0,67.8347375 L18.7154586,67.8347375 C21.4073543,67.8744871 23.6472923,68.1924792 25.4353398,68.7887233 Z M48.3185716,87.272197 C47.247708,88.5044348 46.5747442,90.1738931 46.29966,92.2806222 L59.3562712,92.2806222 C59.2187291,90.0347695 58.5457653,88.3305308 57.3373596,87.1678548 C56.1289538,86.0051789 54.6307497,85.4238496 52.8427022,85.4238496 C50.8974637,85.4238496 49.3894353,86.0399593 48.3185716,87.272197 Z M60.0636272,79.9384316 C62.2053544,80.9520465 63.9737265,82.5519441 65.3687965,84.7381724 C66.6263244,86.6660282 67.4417405,88.9019099 67.8150691,91.4458846 C68.0312067,92.9364948 68.1196253,95.0829413 68.0803275,97.8852884 L46.0933478,97.8852884 C46.2112411,101.144756 47.2231429,103.430324 49.1290836,104.742061 C50.2883672,105.556928 51.6834163,105.964355 53.3142728,105.964355 C55.0433737,105.964355 56.4482471,105.467493 57.5289351,104.473752 C58.1184013,103.937133 58.6390887,103.191839 59.0910128,102.237848 L67.6677033,102.237848 C67.4515656,104.165704 66.4593124,106.123343 64.6909138,108.110823 C61.9400715,111.270917 58.08895,112.85094 53.1374338,112.85094 C49.0504681,112.85094 45.4449539,111.519348 42.3207829,108.856124 C39.196612,106.192901 37.63455,101.860259 37.63455,95.8580687 C37.63455,90.2334996 39.0443355,85.9207322 41.8639489,82.9196371 C44.6835623,79.9185419 48.3431101,78.4180169 52.8427022,78.4180169 C55.514949,78.4180169 57.9218999,78.9248167 60.0636272,79.9384316 Z M88.7088624,95.9773169 C88.1783428,96.3151886 87.642919,96.588463 87.102575,96.7971484 C86.562231,97.0058338 85.8204971,97.1996103 84.8773512,97.3784835 L82.9910687,97.7362281 C81.2226701,98.054225 79.9553368,98.4417778 79.1890307,98.8988983 C77.892205,99.6740155 77.2438019,100.876423 77.2438019,102.506157 C77.2438019,103.957017 77.6416856,105.005398 78.437465,105.651329 C79.2332444,106.29726 80.2009369,106.62022 81.3405716,106.62022 C83.148268,106.62022 84.813485,106.083609 86.3362728,105.010369 C87.8590605,103.93713 88.6499158,101.979491 88.7088624,99.1373947 L88.7088624,95.9773169 Z M83.6100052,92.0123137 C85.1622662,91.8135657 86.2724109,91.5651343 86.9404726,91.2670123 C88.1390539,90.7502675 88.7383355,89.94535 88.7383355,88.8522359 C88.7383355,87.5206241 88.2815061,86.6014283 87.3678335,86.0946209 C86.4541608,85.5878134 85.1131453,85.3344135 83.3447467,85.3344135 C81.3602104,85.3344135 79.9553371,85.8312761 79.1300844,86.8250162 C78.5406181,87.5603839 78.1476466,88.5541091 77.9511578,89.8062216 L69.846038,89.8062216 C70.0228778,86.9641249 70.808821,84.6288707 72.203891,82.8003889 C74.4242137,79.9384173 78.2360381,78.507453 83.6394783,78.507453 C87.1566267,78.507453 90.2807508,79.2129979 93.0119442,80.6241089 C95.7431376,82.0352198 97.1087139,84.6984034 97.1087139,88.6137395 L97.1087139,103.519767 C97.1087139,104.553256 97.1283625,105.80535 97.1676602,107.276086 C97.2266068,108.389074 97.3936198,109.144306 97.668704,109.541802 C97.9437882,109.939298 98.3564084,110.267227 98.9065768,110.525599 L98.9065768,111.777706 L89.7698963,111.777706 C89.5144609,111.121837 89.3376237,110.505728 89.2393793,109.929358 C89.141135,109.352989 89.0625406,108.69713 89.003594,107.961763 C87.8443105,109.23375 86.5082071,110.316911 84.9952438,111.211277 C83.1875474,112.264641 81.1440952,112.791316 78.8648259,112.791316 C75.9567926,112.791316 73.5547538,111.951618 71.6586375,110.272197 C69.7625212,108.592776 68.8144773,106.212804 68.8144773,103.13221 C68.8144773,99.1373747 70.3372421,96.2456343 73.3828175,94.4569021 C75.0529718,93.4830368 77.5090442,92.7874292 80.7511083,92.3700583 L83.6100052,92.0123137 Z M115.114137,67.4322748 C115.546412,67.462087 116.13587,67.5068046 116.882527,67.566429 L116.882527,74.4828257 C116.410954,74.4232013 115.620099,74.3784836 114.509937,74.3486714 C113.399776,74.3188592 112.633481,74.5672905 112.211031,75.0939728 C111.78858,75.620655 111.577358,76.2019843 111.577358,76.837978 L111.577358,79.580687 L117.088839,79.580687 L117.088839,85.5729099 L111.577358,85.5729099 L111.577358,111.777706 L103.206979,111.777706 L103.206979,85.5729099 L98.5207464,85.5729099 L98.5207464,79.580687 L103.11856,79.580687 L103.11856,77.4938432 C103.11856,74.0157528 103.698193,71.620875 104.857476,70.309138 C106.075707,68.3614074 109.013169,67.3875567 113.669952,67.3875567 C114.200472,67.3875567 114.681862,67.4024626 115.114137,67.4322748 Z M133.735818,67.8347375 L143.255649,67.8347375 L160.556396,98.5113415 L160.556396,67.8347375 L169.015194,67.8347375 L169.015194,111.777706 L159.93746,111.777706 L142.194615,80.5644848 L142.194615,111.777706 L133.735818,111.777706 L133.735818,67.8347375 Z M199.517238,67.8347375 L209.803372,67.8347375 L195.273103,95.2618276 L195.273103,111.777706 L186.195369,111.777706 L186.195369,95.2618276 L171.164055,67.8347375 L181.862814,67.8347375 L190.881602,86.9740765 L199.517238,67.8347375 Z M216.461628,72.4257939 C219.998425,68.8085799 224.49795,67 229.960337,67 C237.269718,67 242.614131,69.4246895 245.993737,74.2741413 C247.86038,76.9969892 248.862458,79.7297335 249,82.4724563 L239.922266,82.4724563 C239.3328,80.3657272 238.576329,78.7757669 237.652832,77.7025275 C236.002327,75.7945465 233.556079,74.8405703 230.314015,74.8405703 C227.013004,74.8405703 224.409567,76.187068 222.503626,78.8801037 C220.597686,81.5731394 219.644729,85.3840756 219.644729,90.3130266 C219.644729,95.2419776 220.651719,98.9336667 222.665729,101.388205 C224.679738,103.842743 227.238966,105.069994 230.343488,105.069994 C233.526605,105.069994 235.953205,104.016645 237.623359,101.909916 C238.546856,100.777052 239.313151,99.0777819 239.922266,96.8120544 L248.911581,96.8120544 C248.125626,101.601882 246.116558,105.497285 242.884319,108.49838 C239.652079,111.499475 235.511141,113 230.46138,113 C224.213039,113 219.300894,110.972801 215.724799,106.918341 C212.148704,102.844006 210.360683,97.2592707 210.360683,90.1639663 C210.360683,82.4922926 212.394311,76.5796276 216.461628,72.4257939 Z" id="Deaf-NYC-Weekly-Copy" fill="#FFFFFF"></path>
            <g id="Group-Copy-3" transform="translate(264.000000, 69.000000)" fill-opacity="0.538581295" fill="#FFFFFF">
                <path d="M10.0582851,0.150620404 L15.8109176,25.0226333 L17.0499461,31.9478975 L18.3184753,25.1699793 L23.2155881,0.150620404 L32.8033089,0.150620404 L37.9659278,25.0226333 L39.2934584,31.9478975 L40.6209889,25.2878562 L46.4326228,0.150620404 L55.6663354,0.150620404 L43.4235535,43.5882353 L34.7503537,43.5882353 L29.4992328,18.1857767 L27.9651975,9.78705193 L26.4311622,18.1857767 L21.1800412,43.5882353 L12.7428469,43.5882353 L0.411562972,0.150620404 L10.0582851,0.150620404 Z M76.5796352,12.1151195 C78.7233619,13.1170776 80.493385,14.6985761 81.8897575,16.8596622 C83.1484594,18.7653473 83.9646367,20.9755159 84.3383139,23.4902344 C84.5546533,24.9637022 84.6431544,27.0854641 84.60382,29.8555836 L62.5963132,29.8555836 C62.7143165,33.0775667 63.727163,35.3368501 65.6348831,36.6335018 C66.795249,37.4389976 68.1916005,37.8417394 69.8239796,37.8417394 C71.5546948,37.8417394 72.9608798,37.3505908 74.0425768,36.368279 C74.6325933,35.8378305 75.1537668,35.1011077 75.6061128,34.1580882 L84.1908105,34.1580882 C83.9744711,36.0637733 82.9812915,37.9988987 81.2112418,39.9635225 C78.4578313,43.0872744 74.6031145,44.6491268 69.6469755,44.6491268 C65.5561942,44.6491268 61.9473139,43.3328486 58.8202262,40.7002528 C55.6931386,38.0676569 54.1296182,33.7848412 54.1296182,27.8516774 C54.1296182,22.2917921 55.5407199,18.0286224 58.3629657,15.0620404 C61.1852115,12.0954585 64.8481758,10.6121898 69.3519687,10.6121898 C72.0267104,10.6121898 74.4359084,11.1131614 76.5796352,12.1151195 Z M64.8236145,19.364545 C63.7517511,20.5826118 63.078159,22.232871 62.8028179,24.3153722 L75.8716189,24.3153722 C75.7339484,22.0953474 75.0603562,20.4107077 73.8508223,19.2614028 C72.6412884,18.1120979 71.1416856,17.537454 69.3519687,17.537454 C67.4049142,17.537454 65.8954778,18.1464783 64.8236145,19.364545 Z M107.434664,12.1151195 C109.578391,13.1170776 111.348414,14.6985761 112.744786,16.8596622 C114.003488,18.7653473 114.819665,20.9755159 115.193343,23.4902344 C115.409682,24.9637022 115.498183,27.0854641 115.458849,29.8555836 L93.4513419,29.8555836 C93.5693452,33.0775667 94.5821917,35.3368501 96.4899119,36.6335018 C97.6502777,37.4389976 99.0466293,37.8417394 100.679008,37.8417394 C102.409724,37.8417394 103.815909,37.3505908 104.897605,36.368279 C105.487622,35.8378305 106.008795,35.1011077 106.461142,34.1580882 L115.045839,34.1580882 C114.8295,36.0637733 113.83632,37.9988987 112.066271,39.9635225 C109.31286,43.0872744 105.458143,44.6491268 100.502004,44.6491268 C96.411223,44.6491268 92.8023426,43.3328486 89.675255,40.7002528 C86.5481673,38.0676569 84.9846469,33.7848412 84.9846469,27.8516774 C84.9846469,22.2917921 86.3957487,18.0286224 89.2179944,15.0620404 C92.0402402,12.0954585 95.7032046,10.6121898 100.206997,10.6121898 C102.881739,10.6121898 105.290937,11.1131614 107.434664,12.1151195 Z M95.6786432,19.364545 C94.6067798,20.5826118 93.9331877,22.232871 93.6578467,24.3153722 L106.726648,24.3153722 C106.588977,22.0953474 105.915385,20.4107077 104.705851,19.2614028 C103.496317,18.1120979 101.996714,17.537454 100.206997,17.537454 C98.2599429,17.537454 96.7505066,18.1464783 95.6786432,19.364545 Z M118.288232,0.297966452 L126.548422,0.297966452 L126.548422,23.6965188 L137.021163,11.6141429 L147.434903,11.6141429 L136.195144,23.9028033 L147.877413,43.5882353 L137.72918,43.5882353 L130.029502,29.8555836 L126.548422,33.4802964 L126.548422,43.5882353 L118.288232,43.5882353 L118.288232,0.297966452 Z M157.816461,43.5882353 L149.408767,43.5882353 L149.408767,0.150620404 L157.816461,0.150620404 L157.816461,43.5882353 Z M164.569434,49.7473001 L165.631459,49.8062385 C166.457482,49.845531 167.244159,49.8160621 167.991513,49.7178309 C168.738867,49.6195997 169.368209,49.3936713 169.879557,49.0400391 C170.371237,48.706053 170.828493,48.008622 171.251338,46.9477252 C171.674183,45.8868283 171.846269,45.2385122 171.7676,45.0027574 L159.967328,11.4667969 L169.319044,11.4667969 L176.340205,35.1600414 L182.977858,11.4667969 L191.916564,11.4667969 L180.88331,43.0577895 C178.75925,49.1481233 177.077728,52.9250559 175.838694,54.3887006 C174.599659,55.8523453 172.121627,56.5841567 168.404523,56.5841567 C167.657168,56.5841567 167.057327,56.5792452 166.604981,56.5694221 C166.152635,56.559599 165.474126,56.5252186 164.569434,56.4662799 L164.569434,49.7473001 Z" id="Combined-Shape"></path>
            </g>
        </g>
    </g>
</svg>