<?xml version="1.0" encoding="UTF-8"?>
<svg width="344px" height="145px" viewBox="0 0 344 145" version="1.1" xmlns="http://www.w3.org/2000/svg" xmlns:xlink="http://www.w3.org/1999/xlink">
    <!-- Generator: Sketch 47.1 (45422) - http://www.bohemiancoding.com/sketch -->
    <title>Group 7</title>
    <desc>Created with Sketch.</desc>
    <defs></defs>
    <g id="Page-1" stroke="none" stroke-width="1" fill="none" fill-rule="evenodd">
        <g id="Group-7">
            <g id="Group-6-Copy">
                <circle id="Oval-2-Copy-13" fill="#FF8200" cx="43" cy="43" r="43"></circle>
                <circle id="Oval-2-Copy-14" fill="#284AFE" style="mix-blend-mode: screen;" cx="129" cy="43" r="43"></circle>
                <circle id="Oval-2-Copy-15" fill="#284AFE" style="mix-blend-mode: screen;" cx="215" cy="43" r="43"></circle>
                <circle id="Oval-2-Copy-16" fill="#FF8200" cx="301" cy="43" r="43"></circle>
                <path d="M35.6357422,27.1855469 L35.6357422,58.1875 L44.7880859,58.1875 C49.4717031,58.1875 52.7372954,55.8779528 54.5849609,51.2587891 C55.5947316,48.7236201 56.0996094,45.7050956 56.0996094,42.203125 C56.0996094,37.3691165 55.3422927,33.6577278 53.8276367,31.0688477 C52.3129807,28.4799675 49.2998272,27.1855469 44.7880859,27.1855469 L35.6357422,27.1855469 Z M53.8115234,19.9667969 C57.1416182,21.0625055 59.8378803,23.0712745 61.9003906,25.9931641 C63.5546958,28.3564571 64.6826142,30.9130722 65.2841797,33.6630859 C65.8857452,36.4130997 66.1865234,39.0341672 66.1865234,41.5263672 C66.1865234,47.842805 64.918958,53.1923609 62.3837891,57.5751953 C58.9462719,63.483428 53.6396843,66.4375 46.4638672,66.4375 L26,66.4375 L26,18.9355469 L46.4638672,18.9355469 C49.4072413,18.9785158 51.8564355,19.3222624 53.8115234,19.9667969 Z M146.790039,27.3466797 L121.65332,27.3466797 L121.65332,37.4335938 L144.727539,37.4335938 L144.727539,45.6835938 L121.65332,45.6835938 L121.65332,57.8974609 L147.950195,57.8974609 L147.950195,66.4375 L111.953125,66.4375 L111.953125,18.9355469 L146.790039,18.9355469 L146.790039,27.3466797 Z M208.671875,47.4873047 L220.724609,47.4873047 L214.794922,28.7958984 L208.671875,47.4873047 Z M209.28418,17.9355469 L220.499023,17.9355469 L237.321289,65.4375 L226.557617,65.4375 L223.496094,55.6728516 L205.99707,55.6728516 L202.709961,65.4375 L192.333008,65.4375 L209.28418,17.9355469 Z M285.347656,17 L319.024414,17 L319.024414,25.3466797 L295.208984,25.3466797 L295.208984,36.2714844 L316.05957,36.2714844 L316.05957,44.5214844 L295.208984,44.5214844 L295.208984,64.4375 L285.347656,64.4375 L285.347656,17 Z" id="DEAF-Copy-4" fill="#FFFFFF"></path>
            </g>
            <g id="Group-5-Copy" transform="translate(54.000000, 105.000000)" fill="#FFFFFF">
                <g id="Group-4-Copy-4">
                    <path d="M0.62798227,0.707712249 L8.75266622,0.707712249 L23.5179587,26.7161374 L23.5179587,0.707712249 L30.7371051,0.707712249 L30.7371051,37.9637071 L22.9897285,37.9637071 L7.84712869,11.500324 L7.84712869,37.9637071 L0.62798227,37.9637071 L0.62798227,0.707712249 Z M56.7690224,0.707712249 L65.5477057,0.707712249 L53.1468723,23.9611147 L53.1468723,37.9637071 L45.3994957,37.9637071 L45.3994957,23.9611147 L32.5710473,0.707712249 L41.7018841,0.707712249 L49.3989531,16.9345431 L56.7690224,0.707712249 Z M71.2301824,4.60012962 C74.2486559,1.53336121 78.0887674,0 82.7506321,0 C88.9888107,0 93.5499912,2.05571502 96.4343103,6.16720674 C98.0273936,8.47570824 98.8826149,10.7926002 99,13.117952 L91.2526234,13.117952 C90.7495444,11.3318122 90.1039362,9.98380235 89.3157792,9.07388205 C87.9071582,7.45624596 85.819412,6.64744005 83.0524779,6.64744005 C80.235236,6.64744005 78.0133374,7.78903589 76.3867156,10.0722618 C74.7600937,12.3554878 73.946795,15.5864989 73.946795,19.7653921 C73.946795,23.9442853 74.8062086,27.0741957 76.5250616,29.1552171 C78.2439146,31.2362385 80.4280828,32.2767336 83.0776318,32.2767336 C85.7942579,32.2767336 87.8652351,31.3836771 89.2906254,29.5975373 C90.0787823,28.6370658 90.7327751,27.1963803 91.2526234,25.2754375 L98.9245385,25.2754375 C98.2537666,29.336378 96.5391317,32.6390022 93.7805823,35.1834089 C91.0220329,37.7278157 87.4879565,39 83.178247,39 C77.8456105,39 73.653349,37.2812874 70.6013369,33.8438108 C67.5493248,30.3894837 66.0233416,25.6545991 66.0233416,19.6390149 C66.0233416,13.1347698 67.7589379,8.12185818 71.2301824,4.60012962 Z" id="Deaf-NYC-Weekly-Copy"></path>
                </g>
                <path d="M109,2 L117.01035,2 L131.567858,27.8782263 L131.567858,2 L138.685413,2 L138.685413,39.0694904 L131.047061,39.0694904 L116.117555,12.7385837 L116.117555,39.0694904 L109,39.0694904 L109,2 Z M152.089729,18.397088 C151.188663,19.4365814 150.622406,20.8449062 150.390939,22.6221046 L161.37727,22.6221046 C161.261537,20.727544 160.695279,19.2898792 159.678481,18.3090668 C158.661682,17.3282545 157.401036,16.8378557 155.896505,16.8378557 C154.259707,16.8378557 152.990794,17.3575946 152.089729,18.397088 Z M161.972466,12.2104567 C163.774597,13.0655238 165.262573,14.4151684 166.436438,16.2594308 C167.49457,17.885735 168.180692,19.7718843 168.494825,21.9179351 C168.676692,23.1753868 168.75109,24.9860901 168.718024,27.3500993 L150.21734,27.3500993 C150.31654,30.099727 151.167993,32.0277906 152.771724,33.1343481 C153.74719,33.821755 154.921037,34.1654533 156.293302,34.1654533 C157.748234,34.1654533 158.930348,33.7463091 159.83968,32.9080079 C160.335679,32.4553253 160.773805,31.8266089 161.154071,31.0218398 L168.370826,31.0218398 C168.18896,32.648144 167.35404,34.2995725 165.866042,35.9761747 C163.551378,38.6419723 160.310898,39.9748511 156.144503,39.9748511 C152.705574,39.9748511 149.671757,38.8515444 147.04296,36.6048974 C144.414164,34.3582504 143.099785,30.7033123 143.099785,25.6399735 C143.099785,20.8951892 144.286033,17.2570168 146.658563,14.7253475 C149.031093,12.1936781 152.110376,10.9278623 155.896505,10.9278623 C158.145035,10.9278623 160.170335,11.3553895 161.972466,12.2104567 Z M186.226714,11.6571807 L193.393868,11.6571807 L197.510642,31.3990735 L201.726616,11.6571807 L209.092169,11.6571807 L201.255419,39.0694904 L193.989065,39.0694904 L189.748291,19.1012574 L185.457918,39.0694904 L178.117165,39.0694904 L170.528412,11.6571807 L178.117165,11.6571807 L182.333138,31.3236267 L186.226714,11.6571807 Z M218.49131,30.3176704 C218.64011,31.5918881 218.962505,32.4972398 219.458504,33.0337525 C220.33477,33.9894158 221.95501,34.4672402 224.319274,34.4672402 C225.708072,34.4672402 226.811654,34.2576681 227.630053,33.8385175 C228.448452,33.419367 228.857645,32.7906506 228.857645,31.9523494 C228.857645,31.1475804 228.526984,30.5356297 227.865651,30.1164792 C227.204319,29.6973286 224.749159,28.9764004 220.500098,27.9536731 C217.441435,27.182436 215.28387,26.2184042 214.027338,25.0615486 C212.770807,23.9214591 212.14255,22.2784136 212.14255,20.1323627 C212.14255,17.6006933 213.122134,15.4253345 215.081332,13.606221 C217.040529,11.7871076 219.797418,10.8775645 223.35208,10.8775645 C226.724875,10.8775645 229.473497,11.5607697 231.598028,12.9272005 C233.722558,14.2936314 234.941872,16.6534136 235.256005,20.0066181 L228.188049,20.0066181 C228.088849,19.0844869 227.832587,18.3551759 227.419254,17.8186631 C226.642188,16.8462338 225.319543,16.3600265 223.451279,16.3600265 C221.913681,16.3600265 220.818366,16.6031302 220.1653,17.0893448 C219.512234,17.5755595 219.185706,18.1455957 219.185706,18.7994705 C219.185706,19.6210057 219.5329,20.2161905 220.227299,20.585043 C220.921698,20.9706615 223.376858,21.6329095 227.592853,22.5718068 C230.403516,23.2424477 232.511482,24.2567768 233.916813,25.6148246 C235.305611,26.9896385 236,28.70813 236,30.7703508 C236,33.4864464 235.003883,35.7037196 233.011619,37.4222369 C231.019355,39.1407542 227.940072,40 223.773677,40 C219.524616,40 216.387467,39.0904569 214.362136,37.2713435 C212.336806,35.45223 211.324155,33.1343622 211.324155,30.3176704 L218.49131,30.3176704 Z" id="News-Copy"></path>
            </g>
        </g>
    </g>
</svg>