<?xml version="1.0" encoding="UTF-8"?>
<svg width="344px" height="149px" viewBox="0 0 344 149" version="1.1" xmlns="http://www.w3.org/2000/svg" xmlns:xlink="http://www.w3.org/1999/xlink">
    <!-- Generator: Sketch 47.1 (45422) - http://www.bohemiancoding.com/sketch -->
    <title>Group 10</title>
    <desc>Created with Sketch.</desc>
    <defs></defs>
    <g id="Page-1" stroke="none" stroke-width="1" fill="none" fill-rule="evenodd">
        <g id="Group-10">
            <g id="Group-6" fill="#019C1D">
                <circle id="Oval-2-Copy-13" cx="43" cy="43" r="43"></circle>
                <circle id="Oval-2-Copy-14" style="mix-blend-mode: screen;" cx="129" cy="43" r="43"></circle>
                <circle id="Oval-2-Copy-15" style="mix-blend-mode: screen;" cx="215" cy="43" r="43"></circle>
                <circle id="Oval-2-Copy-16" cx="301" cy="43" r="43"></circle>
            </g>
            <path d="M34.6357422,27.1855469 L34.6357422,58.1875 L43.7880859,58.1875 C48.4717031,58.1875 51.7372954,55.8779528 53.5849609,51.2587891 C54.5947316,48.7236201 55.0996094,45.7050956 55.0996094,42.203125 C55.0996094,37.3691165 54.3422927,33.6577278 52.8276367,31.0688477 C51.3129807,28.4799675 48.2998272,27.1855469 43.7880859,27.1855469 L34.6357422,27.1855469 Z M52.8115234,19.9667969 C56.1416182,21.0625055 58.8378803,23.0712745 60.9003906,25.9931641 C62.5546958,28.3564571 63.6826142,30.9130722 64.2841797,33.6630859 C64.8857452,36.4130997 65.1865234,39.0341672 65.1865234,41.5263672 C65.1865234,47.842805 63.918958,53.1923609 61.3837891,57.5751953 C57.9462719,63.483428 52.6396843,66.4375 45.4638672,66.4375 L25,66.4375 L25,18.9355469 L45.4638672,18.9355469 C48.4072413,18.9785158 50.8564355,19.3222624 52.8115234,19.9667969 Z M145.790039,27.3466797 L120.65332,27.3466797 L120.65332,37.4335938 L143.727539,37.4335938 L143.727539,45.6835938 L120.65332,45.6835938 L120.65332,57.8974609 L146.950195,57.8974609 L146.950195,66.4375 L110.953125,66.4375 L110.953125,18.9355469 L145.790039,18.9355469 L145.790039,27.3466797 Z M207.671875,47.4873047 L219.724609,47.4873047 L213.794922,28.7958984 L207.671875,47.4873047 Z M208.28418,17.9355469 L219.499023,17.9355469 L236.321289,65.4375 L225.557617,65.4375 L222.496094,55.6728516 L204.99707,55.6728516 L201.709961,65.4375 L191.333008,65.4375 L208.28418,17.9355469 Z M284.347656,17 L318.024414,17 L318.024414,25.3466797 L294.208984,25.3466797 L294.208984,36.2714844 L315.05957,36.2714844 L315.05957,44.5214844 L294.208984,44.5214844 L294.208984,64.4375 L284.347656,64.4375 L284.347656,17 Z" id="DEAF-Copy-3" fill="#FFFFFF"></path>
            <text id="NYC-NEWS" font-family="Helvetica" font-size="62" font-weight="bold" fill="#000000">
                <tspan x="6" y="147">NYC NEWS</tspan>
            </text>
        </g>
    </g>
</svg>