<?xml version="1.0" standalone="no"?>
<!DOCTYPE svg PUBLIC "-//W3C//DTD SVG 20010904//EN"
 "http://www.w3.org/TR/2001/REC-SVG-20010904/DTD/svg10.dtd">
<svg version="1.0" xmlns="http://www.w3.org/2000/svg"
 width="474.000000pt" height="442.000000pt" viewBox="0 0 474.000000 442.000000"
 preserveAspectRatio="xMidYMid meet">
<metadata>
Created by potrace 1.15, written by Peter Selinger 2001-2017
</metadata>
<g transform="translate(0.000000,442.000000) scale(0.100000,-0.100000)"
fill="#000000" stroke="none">
<path d="M2423 4129 c-30 -11 -73 -66 -107 -139 -28 -58 -31 -75 -31 -160 0
-119 25 -179 108 -260 31 -30 57 -61 57 -67 0 -7 -17 -21 -37 -32 -69 -34 -78
-52 -81 -155 -4 -167 38 -231 151 -231 118 0 172 59 187 199 5 47 18 119 30
161 18 65 20 84 11 126 -6 28 -11 89 -11 137 -1 65 -9 119 -34 215 -42 164
-62 188 -177 206 -25 4 -55 4 -66 0z"/>
<path d="M1300 3998 c-53 -35 -80 -97 -80 -184 0 -97 17 -145 84 -244 49 -70
57 -89 52 -114 -20 -98 -19 -133 6 -187 31 -67 129 -212 166 -245 78 -70 135
-77 198 -21 59 51 88 120 89 207 0 70 -3 82 -48 172 -26 54 -55 102 -65 107
-44 26 -45 26 -23 62 30 48 27 111 -10 216 -39 109 -54 140 -88 176 -42 46
-98 70 -176 75 -61 3 -74 1 -105 -20z"/>
<path d="M3250 3943 c-88 -61 -134 -203 -111 -336 13 -76 36 -108 87 -125 98
-34 195 -11 240 56 41 60 57 231 29 299 -22 52 -42 72 -100 99 -59 28 -111 30
-145 7z"/>
<path d="M3200 3324 c-114 -49 -166 -169 -158 -365 3 -93 7 -108 31 -145 15
-22 25 -47 22 -55 -3 -8 -23 -26 -45 -39 -43 -26 -46 -33 -104 -203 -20 -59
-26 -93 -24 -140 3 -57 5 -63 35 -83 29 -19 42 -21 120 -17 49 3 102 12 120
20 39 18 67 80 89 195 8 46 26 115 39 153 44 130 51 184 32 252 -16 57 -16 61
5 118 18 47 22 82 23 163 l0 104 -33 29 c-37 34 -93 38 -152 13z"/>
<path d="M4313 3082 c-17 -9 -68 -50 -113 -91 -86 -78 -123 -137 -154 -243
-26 -91 -23 -101 41 -153 52 -43 59 -46 97 -39 162 27 319 205 318 362 0 72
-39 137 -95 163 -51 23 -54 23 -94 1z"/>
<path d="M1694 2893 c-29 -6 -89 -71 -103 -112 -34 -102 10 -230 117 -343 43
-45 89 -62 146 -54 57 9 92 46 107 115 10 46 8 61 -9 114 -11 34 -23 82 -26
107 -11 71 -43 128 -85 149 -38 19 -111 31 -147 24z"/>
<path d="M2293 2847 c-59 -22 -68 -39 -67 -125 2 -90 22 -174 65 -266 35 -74
50 -86 109 -86 52 0 87 18 134 71 125 138 134 364 15 406 -44 15 -214 15 -256
0z"/>
<path d="M3963 2532 c-21 -20 -55 -69 -75 -107 -21 -39 -61 -93 -92 -123 -65
-63 -79 -101 -65 -176 18 -97 61 -123 146 -91 58 22 95 55 129 113 15 26 50
74 79 107 118 138 121 161 25 257 -71 71 -94 74 -147 20z"/>
<path d="M1862 2254 c-12 -8 -27 -12 -34 -8 -7 4 -8 3 -4 -5 5 -7 -12 -35 -41
-69 -72 -85 -110 -149 -142 -245 -68 -200 -136 -687 -140 -998 l-2 -135 46
-60 c63 -82 198 -199 273 -236 56 -28 65 -30 78 -16 27 27 34 86 44 373 13
355 25 435 66 435 23 0 34 -71 34 -220 0 -132 -6 -212 -40 -569 -12 -128 -11
-130 54 -163 93 -48 179 -70 286 -75 65 -3 116 -1 134 6 28 11 28 13 22 63 -4
28 -22 114 -41 190 -43 176 -56 332 -75 938 -10 314 -26 445 -74 610 -31 105
-50 153 -69 168 -14 12 -199 32 -297 32 -34 0 -64 -6 -78 -16z m184 -333 c47
-108 85 -341 65 -393 -12 -33 -73 -52 -144 -45 -65 6 -87 28 -87 86 0 91 63
324 105 387 13 21 19 23 31 13 8 -7 22 -29 30 -48z"/>
<path d="M2639 2227 c-161 -60 -239 -201 -239 -431 0 -112 12 -185 47 -289 26
-77 65 -134 236 -352 99 -126 200 -273 234 -343 31 -61 37 -84 37 -141 1 -54
-3 -73 -18 -90 -22 -24 -54 -28 -62 -6 -4 8 -10 13 -14 10 -5 -3 -26 23 -48
58 -56 88 -60 91 -124 77 -72 -16 -138 -49 -161 -81 -19 -26 -19 -27 1 -70 29
-67 106 -164 159 -204 57 -41 156 -75 222 -75 117 1 274 56 349 125 87 78 119
204 88 338 -38 164 -197 402 -431 645 -150 156 -179 191 -211 254 -49 96 -41
170 20 203 60 33 81 18 194 -134 70 -96 74 -96 135 -31 73 78 127 160 134 203
7 48 -20 88 -131 195 -111 106 -187 144 -299 149 -52 2 -95 -2 -118 -10z"/>
<path d="M333 2165 c-154 -42 -209 -115 -168 -222 21 -54 118 -156 198 -207
77 -50 227 -105 310 -116 123 -15 264 12 281 55 19 50 -4 166 -51 259 -54 107
-189 209 -311 235 -71 15 -195 13 -259 -4z"/>
<path d="M3293 2108 c-18 -28 3 -709 26 -843 6 -33 13 -87 16 -120 3 -33 13
-91 21 -130 8 -38 16 -79 18 -90 5 -25 41 -96 81 -158 36 -57 58 -60 130 -18
74 43 206 161 249 224 l38 56 -1 105 c-2 111 -22 272 -41 321 -11 30 -11 30
-61 -66 -51 -97 -93 -158 -102 -149 -14 14 -20 99 -23 330 -3 319 -11 465 -24
490 -17 31 -127 60 -230 60 -60 0 -91 -4 -97 -12z"/>
<path d="M907 1570 c-37 -11 -97 -57 -97 -75 0 -8 16 -48 36 -90 47 -96 95
-141 161 -150 131 -17 131 -17 168 -144 27 -92 43 -125 84 -168 39 -43 95 -47
105 -9 3 13 3 37 1 53 -3 15 -7 100 -8 188 -2 182 -9 204 -75 244 -26 16 -50
44 -71 81 -23 43 -40 61 -63 69 -36 13 -200 13 -241 1z"/>
</g>
</svg>
