<?xml version="1.0" encoding="UTF-8" standalone="no"?>
<svg width="114px" height="114px" viewBox="0 0 114 114" version="1.1" xmlns="http://www.w3.org/2000/svg" xmlns:xlink="http://www.w3.org/1999/xlink" xmlns:sketch="http://www.bohemiancoding.com/sketch/ns">
    <!-- Generator: Sketch 3.4.2 (15855) - http://www.bohemiancoding.com/sketch -->
    <title>logo</title>
    <desc>Created with Sketch.</desc>
    <defs></defs>
    <g id="Page-1" stroke="none" stroke-width="1" fill="none" fill-rule="evenodd" sketch:type="MSPage">
        <path d="M3,56.9995002 C3,86.7741968 27.2245793,111 57,111 C86.7754207,111 111,86.7741968 111,56.9995002 C111,27.2238039 86.7754207,3 57,3 C27.2235797,3 3,27.2238039 3,56.9995002 Z" id="head" stroke="#7D1416" stroke-width="5" fill="#DD2726" sketch:type="MSShapeGroup"></path>
        <g id="arrow-+-smile" sketch:type="MSLayerGroup" transform="translate(28.000000, 23.000000)">
            <path d="M29.5,74.5 L59,38.0369182 L36.5,38.0369186 L36.5,4.4013671e-07 L21.5,0 L21.5,38.0369182 L0,38.0369182 L29.5,74.5 Z" id="arrow" stroke="#7D1416" stroke-width="5" fill="#FFFFFF" sketch:type="MSShapeGroup"></path>
            <path d="M9.89133587,50.8653516 L7,45 C7.3010306,45.1461158 37.3148634,59.41749 50.1555312,45.4743313 L53,49.3115077 C47.8644539,54.8868085 40.7208355,56.7307032 33.5321525,56.7307032 C19.9974921,56.7307032 10.7619813,51.2873429 9.89133587,50.8653516 Z" id="smile" fill="#7D1416" sketch:type="MSShapeGroup" transform="translate(30.000000, 50.865352) scale(-1, 1) rotate(4.000000) translate(-30.000000, -50.865352) "></path>
        </g>
        <g id="eyebrows-+-eyebrows" sketch:type="MSLayerGroup" transform="translate(26.000000, 22.000000)" fill="#7D1416">
            <path d="M57.387,11.7307032 C56.957,8.56270316 55.885,6.44970316 54.198,5.45170316 C51.622,3.92970316 48.143,5.24570316 48.109,5.25770316 L46.37,0.862703165 C46.599,0.772703165 51.975,-1.31929684 56.56,1.35770316 C59.581,3.12070316 61.434,6.39770316 62.07,11.0957032 L57.387,11.7307032 L57.387,11.7307032 Z" id="eyebrows" sketch:type="MSShapeGroup"></path>
            <path d="M11.017,11.7307032 C10.587,8.56270316 9.515,6.44970316 7.828,5.45170316 C5.252,3.92970316 1.773,5.24570316 1.739,5.25770316 L0,0.862703165 C0.229,0.772703165 5.605,-1.31929684 10.19,1.35770316 C13.211,3.12070316 15.064,6.39770316 15.7,11.0957032 L11.017,11.7307032 L11.017,11.7307032 Z" id="eyebrows" sketch:type="MSShapeGroup" transform="translate(7.850000, 5.865352) scale(-1, 1) translate(-7.850000, -5.865352) "></path>
        </g>
    </g>
</svg>