<?xml version="1.0" encoding="iso-8859-1"?>
<!-- Generator: Adobe Illustrator 19.0.0, SVG Export Plug-In . SVG Version: 6.00 Build 0)  -->
<svg version="1.1" id="Layer_1" xmlns="http://www.w3.org/2000/svg" xmlns:xlink="http://www.w3.org/1999/xlink" x="0px" y="0px"
	 viewBox="0 0 512.001 512.001" style="enable-background:new 0 0 512.001 512.001;" xml:space="preserve">
<circle style="fill:#CFDCE5;" cx="131.168" cy="360.614" r="95.444"/>
<path style="fill:#E4EDF2;" d="M79.795,395.871c0,17.674,3.161,34.596,8.955,50.249c-31.423-15.618-53.01-48.039-53.01-85.503
	c0-52.716,42.728-95.444,95.433-95.444c8.531,0,16.804,1.116,24.666,3.22C110.548,292.871,79.795,340.781,79.795,395.871z"/>
<circle style="fill:#CFDCE5;" cx="380.826" cy="360.614" r="95.444"/>
<path style="fill:#E4EDF2;" d="M328.049,395.871c0,17.674,3.161,34.596,8.954,50.249c-31.423-15.618-53.01-48.039-53.01-85.503
	c0-52.716,42.728-95.444,95.433-95.444c8.531,0,16.804,1.116,24.666,3.22C358.802,292.871,328.049,340.781,328.049,395.871z"/>
<path style="fill:#415E72;" d="M479.327,47.131c-18.016,0-32.673,14.657-32.673,32.673c0,4.867,3.945,8.814,8.814,8.814
	s8.814-3.946,8.814-8.814c0-8.296,6.75-15.046,15.048-15.046c8.296,0,15.046,6.75,15.046,15.046v253.894
	c0,7.01-4.012,13.089-9.853,16.096c-5.431-52.419-49.862-93.43-103.694-93.43c-47.39,0-87.49,31.786-100.116,75.156
	c-6.668-5.67-15.293-9.103-24.712-9.103c-9.419,0-18.044,3.433-24.712,9.103c-12.626-43.37-52.726-75.156-100.116-75.156
	c-53.831,0-98.261,41.011-103.694,93.43c-5.839-3.007-9.851-9.086-9.851-16.096V79.804c0-8.296,6.75-15.046,15.048-15.046
	c8.296,0,15.046,6.75,15.046,15.046c0,4.867,3.945,8.814,8.814,8.814s8.814-3.946,8.814-8.814c0-18.016-14.657-32.673-32.673-32.673
	C14.657,47.131,0,61.788,0,79.804v253.894c0,16.767,11.609,30.865,27.21,34.698c3.992,53.867,49.095,96.475,103.963,96.475
	c57.485,0,104.253-46.768,104.253-104.253c0-11.345,9.23-20.573,20.574-20.573c11.345,0,20.574,9.229,20.574,20.573
	c0,57.485,46.768,104.253,104.253,104.253c54.869,0,99.971-42.608,103.963-96.475c15.601-3.833,27.21-17.931,27.21-34.698V79.804
	C512,61.788,497.344,47.131,479.327,47.131z M131.173,447.244c-47.766,0-86.626-38.861-86.626-86.626s38.859-86.626,86.626-86.626
	s86.626,38.861,86.626,86.626S178.939,447.244,131.173,447.244z M380.827,447.244c-47.766,0-86.626-38.861-86.626-86.626
	s38.859-86.626,86.626-86.626s86.626,38.861,86.626,86.626S428.594,447.244,380.827,447.244z"/>
<g>
</g>
<g>
</g>
<g>
</g>
<g>
</g>
<g>
</g>
<g>
</g>
<g>
</g>
<g>
</g>
<g>
</g>
<g>
</g>
<g>
</g>
<g>
</g>
<g>
</g>
<g>
</g>
<g>
</g>
</svg>
